G04 Layer_Color=32896*
%FSLAX44Y44*%
%MOMM*%
G71*
G01*
G75*
%ADD23C,0.1270*%
%ADD27C,0.2540*%
%ADD28C,2.0160*%
%ADD29C,0.1524*%
D23*
X255016Y831342D02*
X1044956D01*
Y202184D02*
Y831342D01*
X255016Y202184D02*
X1044956D01*
X255016D02*
Y831342D01*
D27*
X959358Y446884D02*
Y430378D01*
Y446884D02*
X953856D01*
X951498Y446099D01*
X949926Y444526D01*
X949140Y442954D01*
X948354Y440596D01*
Y436666D01*
X949140Y434308D01*
X949926Y432736D01*
X951498Y431164D01*
X953856Y430378D01*
X959358D01*
X944659Y436666D02*
X935227D01*
Y438238D01*
X936013Y439810D01*
X936799Y440596D01*
X938371Y441382D01*
X940729D01*
X942301Y440596D01*
X943873Y439024D01*
X944659Y436666D01*
Y435094D01*
X943873Y432736D01*
X942301Y431164D01*
X940729Y430378D01*
X938371D01*
X936799Y431164D01*
X935227Y432736D01*
X923044Y439024D02*
X923830Y440596D01*
X926188Y441382D01*
X928546D01*
X930904Y440596D01*
X931690Y439024D01*
X930904Y437452D01*
X929332Y436666D01*
X925402Y435880D01*
X923830Y435094D01*
X923044Y433522D01*
Y432736D01*
X923830Y431164D01*
X926188Y430378D01*
X928546D01*
X930904Y431164D01*
X931690Y432736D01*
X918013Y446884D02*
X917227Y446099D01*
X916441Y446884D01*
X917227Y447671D01*
X918013Y446884D01*
X917227Y441382D02*
Y430378D01*
X904101Y441382D02*
Y428806D01*
X904887Y426448D01*
X905673Y425662D01*
X907245Y424876D01*
X909603D01*
X911175Y425662D01*
X904101Y439024D02*
X905673Y440596D01*
X907245Y441382D01*
X909603D01*
X911175Y440596D01*
X912747Y439024D01*
X913533Y436666D01*
Y435094D01*
X912747Y432736D01*
X911175Y431164D01*
X909603Y430378D01*
X907245D01*
X905673Y431164D01*
X904101Y432736D01*
X899699Y441382D02*
Y430378D01*
Y438238D02*
X897341Y440596D01*
X895769Y441382D01*
X893411D01*
X891839Y440596D01*
X891053Y438238D01*
Y430378D01*
X886730Y436666D02*
X877297D01*
Y438238D01*
X878083Y439810D01*
X878869Y440596D01*
X880441Y441382D01*
X882799D01*
X884371Y440596D01*
X885944Y439024D01*
X886730Y436666D01*
Y435094D01*
X885944Y432736D01*
X884371Y431164D01*
X882799Y430378D01*
X880441D01*
X878869Y431164D01*
X877297Y432736D01*
X864328Y446884D02*
Y430378D01*
Y439024D02*
X865900Y440596D01*
X867472Y441382D01*
X869830D01*
X871402Y440596D01*
X872974Y439024D01*
X873760Y436666D01*
Y435094D01*
X872974Y432736D01*
X871402Y431164D01*
X869830Y430378D01*
X867472D01*
X865900Y431164D01*
X864328Y432736D01*
X846957Y446884D02*
Y430378D01*
Y446884D02*
X839883D01*
X837525Y446099D01*
X836739Y445312D01*
X835953Y443740D01*
Y442168D01*
X836739Y440596D01*
X837525Y439810D01*
X839883Y439024D01*
X846957D02*
X839883D01*
X837525Y438238D01*
X836739Y437452D01*
X835953Y435880D01*
Y433522D01*
X836739Y431950D01*
X837525Y431164D01*
X839883Y430378D01*
X846957D01*
X831472Y441382D02*
X826756Y430378D01*
X822040Y441382D02*
X826756Y430378D01*
X828328Y427234D01*
X829900Y425662D01*
X831472Y424876D01*
X832258D01*
X946782Y398186D02*
X953070Y414693D01*
X959358Y398186D01*
X957000Y403688D02*
X949140D01*
X933498Y414693D02*
Y398186D01*
Y406832D02*
X935070Y408404D01*
X936642Y409190D01*
X939000D01*
X940572Y408404D01*
X942144Y406832D01*
X942930Y404474D01*
Y402902D01*
X942144Y400544D01*
X940572Y398972D01*
X939000Y398186D01*
X936642D01*
X935070Y398972D01*
X933498Y400544D01*
X927524Y414693D02*
X926738Y413907D01*
X925952Y414693D01*
X926738Y415479D01*
X927524Y414693D01*
X926738Y409190D02*
Y398186D01*
X920686Y414693D02*
Y401330D01*
X919900Y398972D01*
X918328Y398186D01*
X916756D01*
X923044Y409190D02*
X917542D01*
X913612D02*
X908895Y398186D01*
X904179Y409190D02*
X908895Y398186D01*
X910467Y395042D01*
X912039Y393470D01*
X913612Y392684D01*
X914398D01*
X891996Y409190D02*
Y398186D01*
Y406832D02*
X893568Y408404D01*
X895140Y409190D01*
X897498D01*
X899070Y408404D01*
X900642Y406832D01*
X901428Y404474D01*
Y402902D01*
X900642Y400544D01*
X899070Y398972D01*
X897498Y398186D01*
X895140D01*
X893568Y398972D01*
X891996Y400544D01*
X874625Y414693D02*
Y398186D01*
Y414693D02*
X868337Y398186D01*
X862048Y414693D02*
X868337Y398186D01*
X862048Y414693D02*
Y398186D01*
X857332Y409190D02*
Y401330D01*
X856546Y398972D01*
X854974Y398186D01*
X852616D01*
X851044Y398972D01*
X848686Y401330D01*
Y409190D02*
Y398186D01*
X844363Y414693D02*
Y398186D01*
X836503Y409190D02*
X844363Y401330D01*
X841219Y404474D02*
X835717Y398186D01*
X833123Y414693D02*
Y398186D01*
Y406046D02*
X830765Y408404D01*
X829193Y409190D01*
X826835D01*
X825263Y408404D01*
X824477Y406046D01*
Y398186D01*
X820154Y404474D02*
X810721D01*
Y406046D01*
X811507Y407618D01*
X812293Y408404D01*
X813865Y409190D01*
X816223D01*
X817795Y408404D01*
X819368Y406832D01*
X820154Y404474D01*
Y402902D01*
X819368Y400544D01*
X817795Y398972D01*
X816223Y398186D01*
X813865D01*
X812293Y398972D01*
X810721Y400544D01*
X807184Y409190D02*
Y398186D01*
Y404474D02*
X806398Y406832D01*
X804826Y408404D01*
X803254Y409190D01*
X800896D01*
X796258Y414693D02*
X795472Y413907D01*
X794686Y414693D01*
X795472Y415479D01*
X796258Y414693D01*
X795472Y409190D02*
Y395828D01*
X796258Y393470D01*
X797831Y392684D01*
X799402D01*
X791621Y404474D02*
X782189D01*
Y406046D01*
X782975Y407618D01*
X783761Y408404D01*
X785333Y409190D01*
X787691D01*
X789263Y408404D01*
X790835Y406832D01*
X791621Y404474D01*
Y402902D01*
X790835Y400544D01*
X789263Y398972D01*
X787691Y398186D01*
X785333D01*
X783761Y398972D01*
X782189Y400544D01*
X778652Y404474D02*
X769219D01*
Y406046D01*
X770005Y407618D01*
X770791Y408404D01*
X772363Y409190D01*
X774721D01*
X776293Y408404D01*
X777866Y406832D01*
X778652Y404474D01*
Y402902D01*
X777866Y400544D01*
X776293Y398972D01*
X774721Y398186D01*
X772363D01*
X770791Y398972D01*
X769219Y400544D01*
X954388Y505202D02*
X955960Y504416D01*
X957532Y502844D01*
X958318Y501272D01*
X959104Y498914D01*
Y494984D01*
X958318Y492626D01*
X957532Y491054D01*
X955960Y489482D01*
X954388Y488696D01*
X951244D01*
X949672Y489482D01*
X948100Y491054D01*
X947314Y492626D01*
X946528Y494984D01*
Y498914D01*
X947314Y501272D01*
X948100Y502844D01*
X949672Y504416D01*
X951244Y505202D01*
X954388D01*
X942676Y496556D02*
X935602D01*
X933244Y497342D01*
X932458Y498128D01*
X931672Y499700D01*
Y502058D01*
X932458Y503630D01*
X933244Y504416D01*
X935602Y505202D01*
X942676D01*
Y488696D01*
X917759Y505202D02*
X927978D01*
Y488696D01*
X917759D01*
X927978Y497342D02*
X921689D01*
X915008Y505202D02*
Y488696D01*
Y505202D02*
X904004Y488696D01*
Y505202D02*
Y488696D01*
X886476Y505202D02*
Y488696D01*
X875471Y505202D02*
Y488696D01*
X886476Y497342D02*
X875471D01*
X858336Y488696D02*
X864624Y505202D01*
X870912Y488696D01*
X868554Y494198D02*
X860694D01*
X854484Y505202D02*
Y488696D01*
Y505202D02*
X847410D01*
X845052Y504416D01*
X844266Y503630D01*
X843480Y502058D01*
Y500486D01*
X844266Y498914D01*
X845052Y498128D01*
X847410Y497342D01*
X854484D01*
X848982D02*
X843480Y488696D01*
X839786Y505202D02*
Y488696D01*
Y505202D02*
X834284D01*
X831926Y504416D01*
X830354Y502844D01*
X829567Y501272D01*
X828782Y498914D01*
Y494984D01*
X829567Y492626D01*
X830354Y491054D01*
X831926Y489482D01*
X834284Y488696D01*
X839786D01*
X825087Y505202D02*
X821157Y488696D01*
X817227Y505202D02*
X821157Y488696D01*
X817227Y505202D02*
X813297Y488696D01*
X809367Y505202D02*
X813297Y488696D01*
X793489D02*
X799777Y505202D01*
X806066Y488696D01*
X803707Y494198D02*
X795847D01*
X789638Y505202D02*
Y488696D01*
Y505202D02*
X782563D01*
X780205Y504416D01*
X779419Y503630D01*
X778633Y502058D01*
Y500486D01*
X779419Y498914D01*
X780205Y498128D01*
X782563Y497342D01*
X789638D01*
X784136D02*
X778633Y488696D01*
X764721Y505202D02*
X774939D01*
Y488696D01*
X764721D01*
X774939Y497342D02*
X768651D01*
X959612Y475485D02*
Y458978D01*
Y466838D02*
X957254Y469196D01*
X955682Y469982D01*
X953324D01*
X951752Y469196D01*
X950966Y466838D01*
Y458978D01*
X944285Y475485D02*
Y462122D01*
X943499Y459764D01*
X941926Y458978D01*
X940355D01*
X946643Y469982D02*
X941141D01*
X935638Y475485D02*
Y462122D01*
X934852Y459764D01*
X933280Y458978D01*
X931708D01*
X937996Y469982D02*
X932494D01*
X929350D02*
Y453476D01*
Y467624D02*
X927778Y469196D01*
X926206Y469982D01*
X923848D01*
X922276Y469196D01*
X920704Y467624D01*
X919918Y465266D01*
Y463694D01*
X920704Y461336D01*
X922276Y459764D01*
X923848Y458978D01*
X926206D01*
X927778Y459764D01*
X929350Y461336D01*
X907735Y467624D02*
X908521Y469196D01*
X910879Y469982D01*
X913237D01*
X915595Y469196D01*
X916381Y467624D01*
X915595Y466052D01*
X914023Y465266D01*
X910093Y464480D01*
X908521Y463694D01*
X907735Y462122D01*
Y461336D01*
X908521Y459764D01*
X910879Y458978D01*
X913237D01*
X915595Y459764D01*
X916381Y461336D01*
X903490Y469982D02*
X904276Y469196D01*
X903490Y468410D01*
X902704Y469196D01*
X903490Y469982D01*
Y460550D02*
X904276Y459764D01*
X903490Y458978D01*
X902704Y459764D01*
X903490Y460550D01*
X899088Y456620D02*
X888084Y475485D01*
X886983Y456620D02*
X875979Y475485D01*
X865446Y469982D02*
Y457406D01*
X866233Y455048D01*
X867019Y454262D01*
X868591Y453476D01*
X870949D01*
X872521Y454262D01*
X865446Y467624D02*
X867019Y469196D01*
X868591Y469982D01*
X870949D01*
X872521Y469196D01*
X874093Y467624D01*
X874879Y465266D01*
Y463694D01*
X874093Y461336D01*
X872521Y459764D01*
X870949Y458978D01*
X868591D01*
X867019Y459764D01*
X865446Y461336D01*
X859473Y475485D02*
X858687Y474698D01*
X857901Y475485D01*
X858687Y476270D01*
X859473Y475485D01*
X858687Y469982D02*
Y458978D01*
X852634Y475485D02*
Y462122D01*
X851848Y459764D01*
X850276Y458978D01*
X848704D01*
X854992Y469982D02*
X849490D01*
X846346Y475485D02*
Y458978D01*
Y466838D02*
X843988Y469196D01*
X842416Y469982D01*
X840058D01*
X838486Y469196D01*
X837700Y466838D01*
Y458978D01*
X833377Y469982D02*
Y462122D01*
X832591Y459764D01*
X831019Y458978D01*
X828661D01*
X827089Y459764D01*
X824731Y462122D01*
Y469982D02*
Y458978D01*
X820407Y475485D02*
Y458978D01*
Y467624D02*
X818835Y469196D01*
X817263Y469982D01*
X814905D01*
X813333Y469196D01*
X811761Y467624D01*
X810975Y465266D01*
Y463694D01*
X811761Y461336D01*
X813333Y459764D01*
X814905Y458978D01*
X817263D01*
X818835Y459764D01*
X820407Y461336D01*
X806652Y460550D02*
X807438Y459764D01*
X806652Y458978D01*
X805866Y459764D01*
X806652Y460550D01*
X792818Y467624D02*
X794390Y469196D01*
X795962Y469982D01*
X798320D01*
X799892Y469196D01*
X801464Y467624D01*
X802250Y465266D01*
Y463694D01*
X801464Y461336D01*
X799892Y459764D01*
X798320Y458978D01*
X795962D01*
X794390Y459764D01*
X792818Y461336D01*
X785351Y469982D02*
X786923Y469196D01*
X788495Y467624D01*
X789281Y465266D01*
Y463694D01*
X788495Y461336D01*
X786923Y459764D01*
X785351Y458978D01*
X782993D01*
X781421Y459764D01*
X779849Y461336D01*
X779063Y463694D01*
Y465266D01*
X779849Y467624D01*
X781421Y469196D01*
X782993Y469982D01*
X785351D01*
X775447D02*
Y458978D01*
Y466838D02*
X773089Y469196D01*
X771517Y469982D01*
X769159D01*
X767587Y469196D01*
X766801Y466838D01*
Y458978D01*
Y466838D02*
X764443Y469196D01*
X762871Y469982D01*
X760513D01*
X758941Y469196D01*
X758155Y466838D01*
Y458978D01*
X752967Y456620D02*
X741963Y475485D01*
X740862D02*
Y458978D01*
Y475485D02*
X734574Y458978D01*
X728286Y475485D02*
X734574Y458978D01*
X728286Y475485D02*
Y458978D01*
X719640Y469982D02*
X721211Y469196D01*
X722784Y467624D01*
X723570Y465266D01*
Y463694D01*
X722784Y461336D01*
X721211Y459764D01*
X719640Y458978D01*
X717281D01*
X715709Y459764D01*
X714137Y461336D01*
X713351Y463694D01*
Y465266D01*
X714137Y467624D01*
X715709Y469196D01*
X717281Y469982D01*
X719640D01*
X709736D02*
Y458978D01*
Y466838D02*
X707377Y469196D01*
X705806Y469982D01*
X703447D01*
X701875Y469196D01*
X701089Y466838D01*
Y458978D01*
X696766Y475485D02*
Y458978D01*
X688906Y469982D02*
X696766Y462122D01*
X693622Y465266D02*
X688120Y458978D01*
X685526Y475485D02*
Y458978D01*
X674522Y475485D02*
Y458978D01*
X685526Y467624D02*
X674522D01*
X669963Y465266D02*
X660531D01*
Y466838D01*
X661317Y468410D01*
X662103Y469196D01*
X663675Y469982D01*
X666033D01*
X667605Y469196D01*
X669177Y467624D01*
X669963Y465266D01*
Y463694D01*
X669177Y461336D01*
X667605Y459764D01*
X666033Y458978D01*
X663675D01*
X662103Y459764D01*
X660531Y461336D01*
X656993Y475485D02*
Y458978D01*
X651963Y475485D02*
X651177Y474698D01*
X650391Y475485D01*
X651177Y476270D01*
X651963Y475485D01*
X651177Y469982D02*
Y458978D01*
X643552Y469982D02*
X645125Y469196D01*
X646697Y467624D01*
X647483Y465266D01*
Y463694D01*
X646697Y461336D01*
X645125Y459764D01*
X643552Y458978D01*
X641195D01*
X639622Y459764D01*
X638050Y461336D01*
X637264Y463694D01*
Y465266D01*
X638050Y467624D01*
X639622Y469196D01*
X641195Y469982D01*
X643552D01*
X625002Y467624D02*
X625788Y469196D01*
X628147Y469982D01*
X630505D01*
X632863Y469196D01*
X633649Y467624D01*
X632863Y466052D01*
X631291Y465266D01*
X627360Y464480D01*
X625788Y463694D01*
X625002Y462122D01*
Y461336D01*
X625788Y459764D01*
X628147Y458978D01*
X630505D01*
X632863Y459764D01*
X633649Y461336D01*
X956056Y660651D02*
Y645414D01*
Y660651D02*
X946624D01*
X956056Y653395D02*
X950251D01*
X941255Y655572D02*
X942706Y654846D01*
X944157Y653395D01*
X944882Y651218D01*
Y649767D01*
X944157Y647591D01*
X942706Y646140D01*
X941255Y645414D01*
X939078D01*
X937627Y646140D01*
X936176Y647591D01*
X935450Y649767D01*
Y651218D01*
X936176Y653395D01*
X937627Y654846D01*
X939078Y655572D01*
X941255D01*
X932113D02*
Y645414D01*
Y651218D02*
X931387Y653395D01*
X929936Y654846D01*
X928485Y655572D01*
X926308D01*
X912958Y660651D02*
X907153Y645414D01*
X901349Y660651D02*
X907153Y645414D01*
X899390Y651944D02*
X886330D01*
X872399Y660651D02*
X881831D01*
Y645414D01*
X872399D01*
X881831Y653395D02*
X876027D01*
X869860Y660651D02*
X859702Y645414D01*
Y660651D02*
X869860Y645414D01*
X851213Y660651D02*
Y645414D01*
X856292Y660651D02*
X846134D01*
X832348Y654121D02*
X819288D01*
X832348Y649767D02*
X819288D01*
X802818Y660651D02*
X797013Y645414D01*
X791209Y660651D02*
X797013Y645414D01*
X789250Y660651D02*
Y645414D01*
X786058Y660651D02*
Y645414D01*
Y660651D02*
X775900Y645414D01*
Y660651D02*
Y645414D01*
X756817Y660651D02*
X756092Y659925D01*
X755366Y660651D01*
X756092Y661376D01*
X756817Y660651D01*
X756092Y655572D02*
Y643237D01*
X756817Y641061D01*
X758269Y640335D01*
X759720D01*
X752537Y655572D02*
Y648316D01*
X751811Y646140D01*
X750360Y645414D01*
X748183D01*
X746732Y646140D01*
X744556Y648316D01*
Y655572D02*
Y645414D01*
X740565Y655572D02*
Y645414D01*
Y652670D02*
X738388Y654846D01*
X736937Y655572D01*
X734761D01*
X733309Y654846D01*
X732584Y652670D01*
Y645414D01*
Y652670D02*
X730407Y654846D01*
X728956Y655572D01*
X726779D01*
X725328Y654846D01*
X724603Y652670D01*
Y645414D01*
X719814Y655572D02*
Y640335D01*
Y653395D02*
X718363Y654846D01*
X716912Y655572D01*
X714735D01*
X713284Y654846D01*
X711833Y653395D01*
X711107Y651218D01*
Y649767D01*
X711833Y647591D01*
X713284Y646140D01*
X714735Y645414D01*
X716912D01*
X718363Y646140D01*
X719814Y647591D01*
X695871Y652670D02*
X689341D01*
X687164Y653395D01*
X686438Y654121D01*
X685713Y655572D01*
Y657748D01*
X686438Y659200D01*
X687164Y659925D01*
X689341Y660651D01*
X695871D01*
Y645414D01*
X680852Y660651D02*
X672870D01*
X677224Y654846D01*
X675047D01*
X673596Y654121D01*
X672870Y653395D01*
X672145Y651218D01*
Y649767D01*
X672870Y647591D01*
X674322Y646140D01*
X676498Y645414D01*
X678675D01*
X680852Y646140D01*
X681577Y646865D01*
X682303Y648316D01*
X648056Y655572D02*
Y645414D01*
Y653395D02*
X649507Y654846D01*
X650958Y655572D01*
X653135D01*
X654586Y654846D01*
X656037Y653395D01*
X656763Y651218D01*
Y649767D01*
X656037Y647591D01*
X654586Y646140D01*
X653135Y645414D01*
X650958D01*
X649507Y646140D01*
X648056Y647591D01*
X643993Y655572D02*
Y645414D01*
Y652670D02*
X641816Y654846D01*
X640365Y655572D01*
X638189D01*
X636738Y654846D01*
X636012Y652670D01*
Y645414D01*
X623315Y660651D02*
Y645414D01*
Y653395D02*
X624766Y654846D01*
X626217Y655572D01*
X628394D01*
X629845Y654846D01*
X631296Y653395D01*
X632021Y651218D01*
Y649767D01*
X631296Y647591D01*
X629845Y646140D01*
X628394Y645414D01*
X626217D01*
X624766Y646140D01*
X623315Y647591D01*
X607280Y652670D02*
X600750D01*
X598573Y653395D01*
X597848Y654121D01*
X597122Y655572D01*
Y657748D01*
X597848Y659200D01*
X598573Y659925D01*
X600750Y660651D01*
X607280D01*
Y645414D01*
X592986Y657023D02*
Y657748D01*
X592261Y659200D01*
X591535Y659925D01*
X590084Y660651D01*
X587182D01*
X585731Y659925D01*
X585005Y659200D01*
X584280Y657748D01*
Y656297D01*
X585005Y654846D01*
X586456Y652670D01*
X593712Y645414D01*
X583554D01*
X956056Y692401D02*
X950251Y677164D01*
X944447Y692401D02*
X950251Y677164D01*
X942488Y683694D02*
X929428D01*
X915497Y692401D02*
X924930D01*
Y677164D01*
X915497D01*
X924930Y685145D02*
X919125D01*
X912958Y692401D02*
X902800Y677164D01*
Y692401D02*
X912958Y677164D01*
X894311Y692401D02*
Y677164D01*
X899390Y692401D02*
X889232D01*
X873995D02*
X873270Y691675D01*
X872544Y692401D01*
X873270Y693126D01*
X873995Y692401D01*
X873270Y687322D02*
Y677164D01*
X861879Y685145D02*
X862604Y686596D01*
X864781Y687322D01*
X866957D01*
X869134Y686596D01*
X869860Y685145D01*
X869134Y683694D01*
X867683Y682969D01*
X864055Y682243D01*
X862604Y681517D01*
X861879Y680066D01*
Y679341D01*
X862604Y677890D01*
X864781Y677164D01*
X866957D01*
X869134Y677890D01*
X869860Y679341D01*
X844538Y692401D02*
Y680066D01*
X843812Y677890D01*
X842361Y677164D01*
X840910D01*
X846714Y687322D02*
X841635D01*
X838733Y692401D02*
Y677164D01*
Y684420D02*
X836556Y686596D01*
X835105Y687322D01*
X832929D01*
X831478Y686596D01*
X830752Y684420D01*
Y677164D01*
X826761Y682969D02*
X818055D01*
Y684420D01*
X818780Y685871D01*
X819506Y686596D01*
X820957Y687322D01*
X823134D01*
X824585Y686596D01*
X826036Y685145D01*
X826761Y682969D01*
Y681517D01*
X826036Y679341D01*
X824585Y677890D01*
X823134Y677164D01*
X820957D01*
X819506Y677890D01*
X818055Y679341D01*
X802818Y692401D02*
Y677164D01*
X795998Y687322D02*
X797449Y686596D01*
X798900Y685145D01*
X799625Y682969D01*
Y681517D01*
X798900Y679341D01*
X797449Y677890D01*
X795998Y677164D01*
X793821D01*
X792370Y677890D01*
X790919Y679341D01*
X790193Y681517D01*
Y682969D01*
X790919Y685145D01*
X792370Y686596D01*
X793821Y687322D01*
X795998D01*
X778149D02*
Y677164D01*
Y685145D02*
X779600Y686596D01*
X781051Y687322D01*
X783228D01*
X784679Y686596D01*
X786130Y685145D01*
X786856Y682969D01*
Y681517D01*
X786130Y679341D01*
X784679Y677890D01*
X783228Y677164D01*
X781051D01*
X779600Y677890D01*
X778149Y679341D01*
X765379Y692401D02*
Y677164D01*
Y685145D02*
X766830Y686596D01*
X768281Y687322D01*
X770458D01*
X771909Y686596D01*
X773360Y685145D01*
X774086Y682969D01*
Y681517D01*
X773360Y679341D01*
X771909Y677890D01*
X770458Y677164D01*
X768281D01*
X766830Y677890D01*
X765379Y679341D01*
X741363Y685145D02*
X742089Y686596D01*
X744265Y687322D01*
X746442D01*
X748619Y686596D01*
X749344Y685145D01*
X748619Y683694D01*
X747168Y682969D01*
X743540Y682243D01*
X742089Y681517D01*
X741363Y680066D01*
Y679341D01*
X742089Y677890D01*
X744265Y677164D01*
X746442D01*
X748619Y677890D01*
X749344Y679341D01*
X738171Y687322D02*
Y680066D01*
X737445Y677890D01*
X735994Y677164D01*
X733817D01*
X732366Y677890D01*
X730190Y680066D01*
Y687322D02*
Y677164D01*
X726199Y687322D02*
Y672085D01*
Y685145D02*
X724748Y686596D01*
X723297Y687322D01*
X721120D01*
X719669Y686596D01*
X718218Y685145D01*
X717492Y682969D01*
Y681517D01*
X718218Y679341D01*
X719669Y677890D01*
X721120Y677164D01*
X723297D01*
X724748Y677890D01*
X726199Y679341D01*
X714227Y687322D02*
Y672085D01*
Y685145D02*
X712776Y686596D01*
X711325Y687322D01*
X709148D01*
X707697Y686596D01*
X706246Y685145D01*
X705520Y682969D01*
Y681517D01*
X706246Y679341D01*
X707697Y677890D01*
X709148Y677164D01*
X711325D01*
X712776Y677890D01*
X714227Y679341D01*
X702255Y692401D02*
Y677164D01*
X698337Y687322D02*
X693984Y677164D01*
X689631Y687322D02*
X693984Y677164D01*
X695435Y674262D01*
X696886Y672811D01*
X698337Y672085D01*
X699063D01*
X1054354Y831342D02*
X1059434D01*
X1054354Y202184D02*
X1059434D01*
X1056894Y831342D02*
X1061974Y816102D01*
X1051814D02*
X1056894Y831342D01*
Y202184D02*
X1061974Y217424D01*
X1051814D02*
X1056894Y202184D01*
Y595733D02*
Y831342D01*
Y202184D02*
Y437793D01*
X1044977Y843788D02*
Y848868D01*
X255037Y843788D02*
Y848868D01*
X1029737Y841248D02*
X1044977Y846328D01*
X1029737Y851408D02*
X1044977Y846328D01*
X255037D02*
X270277Y841248D01*
X255037Y846328D02*
X270277Y851408D01*
X730246Y846328D02*
X1044977D01*
X255037D02*
X569768D01*
D28*
X351266Y401824D02*
X376266D01*
X413766Y359824D02*
Y379824D01*
X353766Y339824D02*
X373766D01*
D29*
X1050800Y450490D02*
X1053340Y445412D01*
X1058418Y440333D01*
X1063496D01*
X1066036Y442872D01*
Y447951D01*
X1063496Y450490D01*
X1060957D01*
X1058418Y447951D01*
Y440333D01*
X1066036Y465725D02*
Y455568D01*
X1055879Y465725D01*
X1053340D01*
X1050800Y463186D01*
Y458107D01*
X1053340Y455568D01*
X1066036Y470803D02*
X1063496D01*
Y473343D01*
X1066036D01*
Y470803D01*
X1063496Y483499D02*
X1066036Y486038D01*
Y491117D01*
X1063496Y493656D01*
X1053340D01*
X1050800Y491117D01*
Y486038D01*
X1053340Y483499D01*
X1055879D01*
X1058418Y486038D01*
Y493656D01*
X1066036Y498734D02*
Y503813D01*
Y501273D01*
X1050800D01*
X1053340Y498734D01*
X1050800Y521587D02*
X1053340Y516509D01*
X1058418Y511430D01*
X1063496D01*
X1066036Y513969D01*
Y519048D01*
X1063496Y521587D01*
X1060957D01*
X1058418Y519048D01*
Y511430D01*
X1066036Y546979D02*
X1060957Y541900D01*
X1055879D01*
X1050800Y546979D01*
X1066036Y554596D02*
X1055879D01*
Y557135D01*
X1058418Y559675D01*
X1066036D01*
X1058418D01*
X1055879Y562214D01*
X1058418Y564753D01*
X1066036D01*
Y569831D02*
X1055879D01*
Y572370D01*
X1058418Y574910D01*
X1066036D01*
X1058418D01*
X1055879Y577449D01*
X1058418Y579988D01*
X1066036D01*
Y585066D02*
X1060957Y590145D01*
X1055879D01*
X1050800Y585066D01*
X572308Y852421D02*
X582464D01*
Y849882D01*
X572308Y839726D01*
Y837187D01*
X587543Y849882D02*
X590082Y852421D01*
X595160D01*
X597699Y849882D01*
Y847343D01*
X595160Y844804D01*
X597699Y842265D01*
Y839726D01*
X595160Y837187D01*
X590082D01*
X587543Y839726D01*
Y842265D01*
X590082Y844804D01*
X587543Y847343D01*
Y849882D01*
X590082Y844804D02*
X595160D01*
X602778Y837187D02*
Y839726D01*
X605317D01*
Y837187D01*
X602778D01*
X615474Y839726D02*
X618013Y837187D01*
X623091D01*
X625630Y839726D01*
Y849882D01*
X623091Y852421D01*
X618013D01*
X615474Y849882D01*
Y847343D01*
X618013Y844804D01*
X625630D01*
X630709Y839726D02*
X633248Y837187D01*
X638326D01*
X640865Y839726D01*
Y849882D01*
X638326Y852421D01*
X633248D01*
X630709Y849882D01*
Y847343D01*
X633248Y844804D01*
X640865D01*
X653561Y837187D02*
Y852421D01*
X645944Y844804D01*
X656100D01*
X681492Y837187D02*
X676414Y842265D01*
Y847343D01*
X681492Y852421D01*
X689110Y837187D02*
Y847343D01*
X691649D01*
X694188Y844804D01*
Y837187D01*
Y844804D01*
X696727Y847343D01*
X699267Y844804D01*
Y837187D01*
X704345D02*
Y847343D01*
X706884D01*
X709423Y844804D01*
Y837187D01*
Y844804D01*
X711962Y847343D01*
X714502Y844804D01*
Y837187D01*
X719580D02*
X724658Y842265D01*
Y847343D01*
X719580Y852421D01*
M02*
