G04 Layer_Color=65535*
%FSLAX44Y44*%
%MOMM*%
G71*
G01*
G75*
%ADD23C,0.1270*%
%ADD27C,0.2540*%
%ADD28C,2.0160*%
%ADD29C,0.1524*%
%ADD43C,0.2500*%
%ADD44C,0.2000*%
%ADD45C,0.0600*%
%ADD46C,0.1000*%
%ADD47C,0.0127*%
%ADD48C,0.3048*%
%ADD49C,0.1778*%
%ADD50C,0.2032*%
%ADD51R,0.8000X2.8000*%
G36*
X770743Y773343D02*
X750716D01*
Y762988D01*
X769441D01*
Y758958D01*
X750716D01*
Y747488D01*
X771549D01*
Y743458D01*
X746252D01*
Y777373D01*
X770743D01*
Y773343D01*
D02*
G37*
G36*
X941866D02*
X921840D01*
Y762988D01*
X940564D01*
Y758958D01*
X921840D01*
Y747488D01*
X942672D01*
Y743458D01*
X917376D01*
Y777373D01*
X941866D01*
Y773343D01*
D02*
G37*
G36*
X896667Y777311D02*
X897473D01*
X898403Y777249D01*
X899271Y777125D01*
X900139Y777001D01*
X900264D01*
X900511Y776939D01*
X900946Y776815D01*
X901504Y776691D01*
X902186Y776505D01*
X902868Y776195D01*
X903674Y775885D01*
X904418Y775451D01*
X904480Y775389D01*
X904790Y775265D01*
X905162Y774955D01*
X905658Y774583D01*
X906154Y774149D01*
X906774Y773591D01*
X907394Y772909D01*
X907952Y772165D01*
X908014Y772041D01*
X908200Y771793D01*
X908448Y771359D01*
X908820Y770739D01*
X909192Y770057D01*
X909564Y769189D01*
X909936Y768259D01*
X910308Y767266D01*
X910370Y767142D01*
X910432Y766770D01*
X910618Y766151D01*
X910804Y765406D01*
X910928Y764415D01*
X911114Y763236D01*
X911176Y761996D01*
X911238Y760570D01*
Y760508D01*
Y760260D01*
Y759826D01*
X911176Y759330D01*
X911114Y758710D01*
X911052Y757966D01*
X910928Y757098D01*
X910804Y756230D01*
X910370Y754246D01*
X910060Y753254D01*
X909750Y752200D01*
X909316Y751146D01*
X908820Y750154D01*
X908262Y749162D01*
X907642Y748232D01*
X907580Y748170D01*
X907456Y748046D01*
X907270Y747798D01*
X906960Y747488D01*
X906526Y747116D01*
X906030Y746744D01*
X905472Y746310D01*
X904790Y745876D01*
X903984Y745380D01*
X903054Y744946D01*
X902061Y744574D01*
X900946Y744202D01*
X899706Y743892D01*
X898403Y743644D01*
X896915Y743520D01*
X895365Y743458D01*
X883151D01*
Y777373D01*
X895923D01*
X896667Y777311D01*
D02*
G37*
G36*
X793249Y777869D02*
X793683D01*
X794179Y777807D01*
X795357Y777621D01*
X796721Y777311D01*
X798147Y776877D01*
X799573Y776257D01*
X800937Y775389D01*
X800999D01*
X801123Y775265D01*
X801247Y775141D01*
X801495Y774893D01*
X802115Y774335D01*
X802859Y773529D01*
X803727Y772475D01*
X804533Y771235D01*
X805277Y769747D01*
X805897Y768011D01*
X801495Y767019D01*
Y767081D01*
X801433Y767142D01*
X801371Y767328D01*
X801309Y767577D01*
X800999Y768197D01*
X800627Y769003D01*
X800193Y769809D01*
X799573Y770739D01*
X798891Y771545D01*
X798085Y772289D01*
X797961Y772351D01*
X797651Y772599D01*
X797155Y772847D01*
X796535Y773219D01*
X795729Y773529D01*
X794737Y773839D01*
X793621Y774025D01*
X792443Y774087D01*
X791885D01*
X791513Y774025D01*
X791079Y773963D01*
X790521Y773901D01*
X789281Y773653D01*
X787917Y773219D01*
X787235Y772909D01*
X786553Y772537D01*
X785871Y772103D01*
X785189Y771669D01*
X784569Y771049D01*
X784011Y770429D01*
Y770367D01*
X783887Y770243D01*
X783763Y770057D01*
X783577Y769747D01*
X783329Y769375D01*
X783081Y768941D01*
X782833Y768445D01*
X782585Y767825D01*
X782337Y767142D01*
X782089Y766460D01*
X781841Y765655D01*
X781593Y764725D01*
X781407Y763794D01*
X781283Y762802D01*
X781221Y761748D01*
X781159Y760632D01*
Y760570D01*
Y760322D01*
Y759950D01*
X781221Y759516D01*
Y758896D01*
X781345Y758214D01*
X781407Y757470D01*
X781531Y756726D01*
X781903Y754990D01*
X782399Y753254D01*
X783143Y751580D01*
X783639Y750836D01*
X784135Y750154D01*
X784197Y750092D01*
X784259Y750030D01*
X784445Y749844D01*
X784693Y749596D01*
X785003Y749348D01*
X785375Y749100D01*
X786243Y748480D01*
X787421Y747798D01*
X788785Y747302D01*
X790335Y746868D01*
X791203Y746806D01*
X792071Y746744D01*
X792443D01*
X792753Y746806D01*
X793435Y746868D01*
X794365Y746992D01*
X795419Y747240D01*
X796473Y747612D01*
X797527Y748170D01*
X798519Y748852D01*
X798643Y748976D01*
X798953Y749286D01*
X799387Y749782D01*
X799883Y750464D01*
X800503Y751394D01*
X801061Y752510D01*
X801619Y753812D01*
X802053Y755362D01*
X806455Y754184D01*
Y754122D01*
X806393Y753936D01*
X806269Y753626D01*
X806145Y753254D01*
X806021Y752758D01*
X805773Y752262D01*
X805277Y750960D01*
X804533Y749596D01*
X803603Y748170D01*
X802549Y746868D01*
X801929Y746248D01*
X801247Y745690D01*
X801185D01*
X801061Y745566D01*
X800875Y745442D01*
X800627Y745256D01*
X800255Y745070D01*
X799821Y744822D01*
X799325Y744574D01*
X798767Y744326D01*
X797465Y743768D01*
X795977Y743334D01*
X794241Y743024D01*
X793311Y742962D01*
X792381Y742900D01*
X792009D01*
X791575Y742962D01*
X791017D01*
X790335Y743086D01*
X789529Y743148D01*
X788661Y743334D01*
X787731Y743582D01*
X786801Y743830D01*
X785809Y744202D01*
X784755Y744574D01*
X783763Y745070D01*
X782833Y745690D01*
X781903Y746372D01*
X781035Y747178D01*
X780291Y748108D01*
X780229Y748170D01*
X780105Y748356D01*
X779919Y748666D01*
X779733Y749038D01*
X779423Y749534D01*
X779113Y750154D01*
X778741Y750836D01*
X778431Y751642D01*
X778059Y752510D01*
X777687Y753440D01*
X777377Y754494D01*
X777129Y755610D01*
X776881Y756788D01*
X776695Y757966D01*
X776571Y759268D01*
X776509Y760632D01*
Y760756D01*
Y761004D01*
X776571Y761438D01*
Y761996D01*
X776633Y762678D01*
X776757Y763422D01*
X776881Y764352D01*
X777067Y765283D01*
X777315Y766274D01*
X777625Y767328D01*
X777935Y768383D01*
X778369Y769437D01*
X778927Y770491D01*
X779485Y771483D01*
X780167Y772475D01*
X780973Y773343D01*
X781035Y773405D01*
X781159Y773529D01*
X781407Y773777D01*
X781779Y774087D01*
X782213Y774397D01*
X782771Y774769D01*
X783391Y775203D01*
X784073Y775637D01*
X784879Y776071D01*
X785747Y776505D01*
X786677Y776877D01*
X787669Y777187D01*
X788785Y777497D01*
X789963Y777745D01*
X791141Y777869D01*
X792443Y777931D01*
X792939D01*
X793249Y777869D01*
D02*
G37*
G36*
X838758Y743458D02*
X834294D01*
Y759392D01*
X816562D01*
Y743458D01*
X812097D01*
Y777373D01*
X816562D01*
Y763422D01*
X834294D01*
Y777373D01*
X838758D01*
Y743458D01*
D02*
G37*
G36*
X862195Y777869D02*
X862815Y777807D01*
X863497Y777683D01*
X864303Y777497D01*
X865109Y777311D01*
X866039Y777063D01*
X866969Y776753D01*
X867899Y776381D01*
X868891Y775885D01*
X869883Y775327D01*
X870813Y774707D01*
X871743Y773963D01*
X872611Y773095D01*
X872673Y773033D01*
X872797Y772847D01*
X873045Y772599D01*
X873355Y772227D01*
X873665Y771731D01*
X874037Y771173D01*
X874471Y770491D01*
X874905Y769685D01*
X875339Y768817D01*
X875773Y767825D01*
X876145Y766833D01*
X876455Y765655D01*
X876765Y764476D01*
X877013Y763174D01*
X877137Y761748D01*
X877199Y760322D01*
Y760260D01*
Y759950D01*
Y759578D01*
X877137Y759020D01*
X877075Y758338D01*
X876951Y757594D01*
X876827Y756726D01*
X876641Y755796D01*
X876393Y754804D01*
X876083Y753750D01*
X875711Y752696D01*
X875277Y751642D01*
X874719Y750588D01*
X874099Y749596D01*
X873417Y748604D01*
X872611Y747674D01*
X872549Y747612D01*
X872425Y747488D01*
X872177Y747240D01*
X871805Y746930D01*
X871371Y746558D01*
X870813Y746186D01*
X870193Y745752D01*
X869449Y745318D01*
X868643Y744822D01*
X867775Y744388D01*
X866845Y744016D01*
X865791Y743644D01*
X864737Y743334D01*
X863559Y743086D01*
X862319Y742962D01*
X861017Y742900D01*
X860707D01*
X860335Y742962D01*
X859777D01*
X859156Y743024D01*
X858475Y743148D01*
X857669Y743334D01*
X856801Y743520D01*
X855871Y743768D01*
X854878Y744140D01*
X853886Y744512D01*
X852894Y745008D01*
X851902Y745566D01*
X850972Y746248D01*
X850042Y746992D01*
X849174Y747860D01*
X849112Y747922D01*
X848988Y748108D01*
X848740Y748356D01*
X848492Y748728D01*
X848182Y749224D01*
X847810Y749782D01*
X847376Y750464D01*
X847004Y751208D01*
X846570Y752076D01*
X846136Y753006D01*
X845764Y753998D01*
X845454Y755052D01*
X845206Y756168D01*
X844958Y757408D01*
X844834Y758648D01*
X844772Y759950D01*
Y760074D01*
Y760322D01*
X844834Y760756D01*
Y761314D01*
X844896Y762058D01*
X845020Y762864D01*
X845144Y763733D01*
X845330Y764725D01*
X845578Y765779D01*
X845888Y766833D01*
X846198Y767949D01*
X846632Y769003D01*
X847190Y770119D01*
X847748Y771173D01*
X848430Y772165D01*
X849236Y773095D01*
X849298Y773157D01*
X849422Y773281D01*
X849732Y773529D01*
X850042Y773839D01*
X850538Y774211D01*
X851034Y774645D01*
X851716Y775079D01*
X852398Y775513D01*
X853204Y775947D01*
X854072Y776381D01*
X855064Y776815D01*
X856118Y777187D01*
X857234Y777497D01*
X858412Y777745D01*
X859715Y777869D01*
X861017Y777931D01*
X861699D01*
X862195Y777869D01*
D02*
G37*
%LPC*%
G36*
X896357Y773343D02*
X887615D01*
Y747488D01*
X895675D01*
X896233Y747550D01*
X896791D01*
X897473Y747612D01*
X898837Y747736D01*
X898899D01*
X899147Y747798D01*
X899457Y747860D01*
X899954Y748046D01*
X900450Y748232D01*
X901069Y748480D01*
X901690Y748790D01*
X902372Y749224D01*
X902433Y749286D01*
X902682Y749472D01*
X902991Y749782D01*
X903426Y750216D01*
X903860Y750774D01*
X904418Y751456D01*
X904914Y752262D01*
X905348Y753254D01*
Y753316D01*
X905410Y753378D01*
X905472Y753564D01*
X905534Y753750D01*
X905720Y754370D01*
X905968Y755238D01*
X906216Y756292D01*
X906402Y757532D01*
X906526Y759020D01*
X906588Y760632D01*
Y760756D01*
Y761066D01*
Y761562D01*
X906526Y762182D01*
X906464Y762926D01*
X906402Y763733D01*
X906092Y765406D01*
Y765530D01*
X906030Y765779D01*
X905906Y766212D01*
X905720Y766770D01*
X905472Y767391D01*
X905224Y768073D01*
X904852Y768755D01*
X904418Y769437D01*
X904356Y769499D01*
X904232Y769747D01*
X903984Y770057D01*
X903612Y770429D01*
X903240Y770863D01*
X902744Y771297D01*
X902186Y771731D01*
X901628Y772103D01*
X901565Y772165D01*
X901379Y772227D01*
X901069Y772413D01*
X900697Y772537D01*
X900201Y772723D01*
X899706Y772909D01*
X899147Y773033D01*
X898589Y773157D01*
X898527D01*
X898341Y773219D01*
X897969D01*
X897535Y773281D01*
X896977D01*
X896357Y773343D01*
D02*
G37*
G36*
X861017Y774087D02*
X860521D01*
X860149Y774025D01*
X859715Y773963D01*
X859219Y773901D01*
X858040Y773653D01*
X856739Y773219D01*
X856057Y772971D01*
X855312Y772599D01*
X854630Y772165D01*
X853948Y771731D01*
X853266Y771173D01*
X852646Y770553D01*
X852584Y770491D01*
X852522Y770367D01*
X852336Y770181D01*
X852150Y769871D01*
X851902Y769561D01*
X851654Y769065D01*
X851344Y768569D01*
X851034Y767949D01*
X850724Y767205D01*
X850414Y766398D01*
X850166Y765530D01*
X849918Y764601D01*
X849732Y763547D01*
X849546Y762430D01*
X849484Y761190D01*
X849422Y759888D01*
Y759826D01*
Y759640D01*
Y759330D01*
X849484Y758896D01*
X849546Y758400D01*
X849608Y757842D01*
X849670Y757160D01*
X849794Y756478D01*
X850166Y754990D01*
X850786Y753378D01*
X851096Y752572D01*
X851530Y751828D01*
X852026Y751022D01*
X852584Y750340D01*
X852646Y750278D01*
X852708Y750216D01*
X852894Y750030D01*
X853142Y749782D01*
X853514Y749534D01*
X853886Y749224D01*
X854320Y748852D01*
X854817Y748542D01*
X856057Y747860D01*
X857483Y747302D01*
X858288Y747054D01*
X859094Y746930D01*
X860025Y746806D01*
X860955Y746744D01*
X861451D01*
X861823Y746806D01*
X862257Y746868D01*
X862753Y746930D01*
X863931Y747178D01*
X865233Y747612D01*
X865915Y747922D01*
X866659Y748294D01*
X867341Y748666D01*
X868023Y749162D01*
X868643Y749720D01*
X869263Y750340D01*
X869325Y750402D01*
X869387Y750526D01*
X869573Y750712D01*
X869759Y751022D01*
X870007Y751394D01*
X870317Y751828D01*
X870565Y752324D01*
X870875Y752944D01*
X871185Y753626D01*
X871495Y754370D01*
X871743Y755176D01*
X871991Y756044D01*
X872239Y757036D01*
X872363Y758090D01*
X872487Y759144D01*
X872549Y760322D01*
Y760384D01*
Y760632D01*
Y760942D01*
X872487Y761438D01*
X872425Y761996D01*
X872363Y762616D01*
X872301Y763298D01*
X872115Y764105D01*
X871743Y765716D01*
X871185Y767391D01*
X870813Y768259D01*
X870379Y769065D01*
X869821Y769809D01*
X869263Y770491D01*
X869201Y770553D01*
X869139Y770677D01*
X868953Y770801D01*
X868705Y771049D01*
X868333Y771297D01*
X867961Y771607D01*
X867527Y771979D01*
X867031Y772289D01*
X865791Y772971D01*
X864427Y773529D01*
X863621Y773777D01*
X862815Y773963D01*
X861947Y774025D01*
X861017Y774087D01*
D02*
G37*
%LPD*%
D23*
X255016Y831342D02*
X1044956D01*
Y202184D02*
Y831342D01*
X255016Y202184D02*
X1044956D01*
X255016D02*
Y831342D01*
D27*
X256794Y484632D02*
Y647192D01*
X332994D01*
X491744D02*
X499364D01*
Y626872D02*
Y647192D01*
Y484632D02*
Y504952D01*
X493014Y484632D02*
X499364D01*
X256794D02*
X332994D01*
X577850Y294635D02*
Y281939D01*
X580389Y279400D01*
X585467D01*
X588007Y281939D01*
Y294635D01*
X603242Y279400D02*
X593085D01*
X603242Y289557D01*
Y292096D01*
X600703Y294635D01*
X595624D01*
X593085Y292096D01*
X520697Y485136D02*
X518158Y487675D01*
X513079D01*
X510540Y485136D01*
Y474979D01*
X513079Y472440D01*
X518158D01*
X520697Y474979D01*
X525775Y472440D02*
X530853D01*
X528314D01*
Y487675D01*
X525775Y485136D01*
X485137Y378456D02*
X482598Y380995D01*
X477519D01*
X474980Y378456D01*
Y368299D01*
X477519Y365760D01*
X482598D01*
X485137Y368299D01*
X500372Y365760D02*
X490215D01*
X500372Y375917D01*
Y378456D01*
X497833Y380995D01*
X492754D01*
X490215Y378456D01*
X527047Y386076D02*
X524507Y388615D01*
X519429D01*
X516890Y386076D01*
Y375919D01*
X519429Y373380D01*
X524507D01*
X527047Y375919D01*
X532125Y386076D02*
X534664Y388615D01*
X539743D01*
X542282Y386076D01*
Y383537D01*
X539743Y380998D01*
X537203D01*
X539743D01*
X542282Y378458D01*
Y375919D01*
X539743Y373380D01*
X534664D01*
X532125Y375919D01*
X496313Y295906D02*
X493773Y298445D01*
X488695D01*
X486156Y295906D01*
Y285749D01*
X488695Y283210D01*
X493773D01*
X496313Y285749D01*
X509009Y283210D02*
Y298445D01*
X501391Y290828D01*
X511548D01*
X593087Y455926D02*
X590547Y458465D01*
X585469D01*
X582930Y455926D01*
Y445769D01*
X585469Y443230D01*
X590547D01*
X593087Y445769D01*
X608322Y458465D02*
X598165D01*
Y450848D01*
X603243Y453387D01*
X605783D01*
X608322Y450848D01*
Y445769D01*
X605783Y443230D01*
X600704D01*
X598165Y445769D01*
X805180Y617215D02*
Y601980D01*
X812797D01*
X815337Y604519D01*
Y614676D01*
X812797Y617215D01*
X805180D01*
X820415Y601980D02*
X825493D01*
X822954D01*
Y617215D01*
X820415Y614676D01*
X665480Y621025D02*
Y605790D01*
X673098D01*
X675637Y608329D01*
Y618486D01*
X673098Y621025D01*
X665480D01*
X690872Y605790D02*
X680715D01*
X690872Y615947D01*
Y618486D01*
X688333Y621025D01*
X683254D01*
X680715Y618486D01*
X1002030Y280670D02*
Y295905D01*
X1009648D01*
X1012187Y293366D01*
Y288288D01*
X1009648Y285748D01*
X1002030D01*
X1027422Y280670D02*
X1017265D01*
X1027422Y290827D01*
Y293366D01*
X1024883Y295905D01*
X1019804D01*
X1017265Y293366D01*
X1002030Y558800D02*
Y574035D01*
X1009648D01*
X1012187Y571496D01*
Y566418D01*
X1009648Y563878D01*
X1002030D01*
X1017265Y571496D02*
X1019804Y574035D01*
X1024883D01*
X1027422Y571496D01*
Y568957D01*
X1024883Y566418D01*
X1022343D01*
X1024883D01*
X1027422Y563878D01*
Y561339D01*
X1024883Y558800D01*
X1019804D01*
X1017265Y561339D01*
X834387Y640079D02*
Y650236D01*
X831848Y652775D01*
X826769D01*
X824230Y650236D01*
Y640079D01*
X826769Y637540D01*
X831848D01*
X829308Y642618D02*
X834387Y637540D01*
X831848D02*
X834387Y640079D01*
X839465Y637540D02*
X844543D01*
X842004D01*
Y652775D01*
X839465Y650236D01*
X693417Y640079D02*
Y650236D01*
X690878Y652775D01*
X685799D01*
X683260Y650236D01*
Y640079D01*
X685799Y637540D01*
X690878D01*
X688338Y642618D02*
X693417Y637540D01*
X690878D02*
X693417Y640079D01*
X708652Y637540D02*
X698495D01*
X708652Y647697D01*
Y650236D01*
X706113Y652775D01*
X701034D01*
X698495Y650236D01*
X844804Y661670D02*
Y676905D01*
X852421D01*
X854961Y674366D01*
Y669287D01*
X852421Y666748D01*
X844804D01*
X849882D02*
X854961Y661670D01*
X860039D02*
X865117D01*
X862578D01*
Y676905D01*
X860039Y674366D01*
X701294Y662178D02*
Y677413D01*
X708912D01*
X711451Y674874D01*
Y669796D01*
X708912Y667256D01*
X701294D01*
X706372D02*
X711451Y662178D01*
X726686D02*
X716529D01*
X726686Y672335D01*
Y674874D01*
X724147Y677413D01*
X719068D01*
X716529Y674874D01*
X388620Y440690D02*
Y455925D01*
X396237D01*
X398777Y453386D01*
Y448307D01*
X396237Y445768D01*
X388620D01*
X393698D02*
X398777Y440690D01*
X403855Y453386D02*
X406394Y455925D01*
X411473D01*
X414012Y453386D01*
Y450847D01*
X411473Y448307D01*
X408933D01*
X411473D01*
X414012Y445768D01*
Y443229D01*
X411473Y440690D01*
X406394D01*
X403855Y443229D01*
X464058Y414528D02*
Y429763D01*
X471675D01*
X474215Y427224D01*
Y422146D01*
X471675Y419606D01*
X464058D01*
X469136D02*
X474215Y414528D01*
X486911D02*
Y429763D01*
X479293Y422146D01*
X489450D01*
X496570Y716280D02*
Y731515D01*
X504188D01*
X506727Y728976D01*
Y723897D01*
X504188Y721358D01*
X496570D01*
X501648D02*
X506727Y716280D01*
X521962Y731515D02*
X511805D01*
Y723897D01*
X516883Y726437D01*
X519423D01*
X521962Y723897D01*
Y718819D01*
X519423Y716280D01*
X514344D01*
X511805Y718819D01*
X496570Y693420D02*
Y708655D01*
X504188D01*
X506727Y706116D01*
Y701038D01*
X504188Y698498D01*
X496570D01*
X501648D02*
X506727Y693420D01*
X521962Y708655D02*
X516883Y706116D01*
X511805Y701038D01*
Y695959D01*
X514344Y693420D01*
X519423D01*
X521962Y695959D01*
Y698498D01*
X519423Y701038D01*
X511805D01*
X496570Y669290D02*
Y684525D01*
X504188D01*
X506727Y681986D01*
Y676908D01*
X504188Y674368D01*
X496570D01*
X501648D02*
X506727Y669290D01*
X511805Y684525D02*
X521962D01*
Y681986D01*
X511805Y671829D01*
Y669290D01*
X304800Y477515D02*
Y464819D01*
X307339Y462280D01*
X312418D01*
X314957Y464819D01*
Y477515D01*
X320035Y462280D02*
X325113D01*
X322574D01*
Y477515D01*
X320035Y474976D01*
X906780Y560065D02*
X916937Y544830D01*
Y560065D02*
X906780Y544830D01*
X922015D02*
X927093D01*
X924554D01*
Y560065D01*
X922015Y557526D01*
X605287Y342138D02*
X620522Y352295D01*
X605287D02*
X620522Y342138D01*
Y367530D02*
Y357373D01*
X610365Y367530D01*
X607826D01*
X605287Y364991D01*
Y359912D01*
X607826Y357373D01*
X840994Y237125D02*
X842445Y237850D01*
X844622Y240027D01*
Y224790D01*
X852168Y222613D02*
X862325Y240027D01*
X863341Y237125D02*
X864792Y237850D01*
X866969Y240027D01*
Y224790D01*
X874515Y222613D02*
X884673Y240027D01*
X886414Y236399D02*
Y237125D01*
X887140Y238576D01*
X887865Y239301D01*
X889316Y240027D01*
X892218D01*
X893670Y239301D01*
X894395Y238576D01*
X895121Y237125D01*
Y235673D01*
X894395Y234222D01*
X892944Y232046D01*
X885688Y224790D01*
X895846D01*
X903610Y240027D02*
X901433Y239301D01*
X899982Y237125D01*
X899256Y233497D01*
Y231320D01*
X899982Y227692D01*
X901433Y225516D01*
X903610Y224790D01*
X905061D01*
X907237Y225516D01*
X908689Y227692D01*
X909414Y231320D01*
Y233497D01*
X908689Y237125D01*
X907237Y239301D01*
X905061Y240027D01*
X903610D01*
X912824Y237125D02*
X914276Y237850D01*
X916452Y240027D01*
Y224790D01*
X933430Y234948D02*
X932705Y232771D01*
X931254Y231320D01*
X929077Y230595D01*
X928351D01*
X926175Y231320D01*
X924724Y232771D01*
X923998Y234948D01*
Y235673D01*
X924724Y237850D01*
X926175Y239301D01*
X928351Y240027D01*
X929077D01*
X931254Y239301D01*
X932705Y237850D01*
X933430Y234948D01*
Y231320D01*
X932705Y227692D01*
X931254Y225516D01*
X929077Y224790D01*
X927626D01*
X925449Y225516D01*
X924724Y226967D01*
X302768Y688340D02*
X287533D01*
Y695957D01*
X290072Y698497D01*
X295151D01*
X297690Y695957D01*
Y688340D01*
Y693418D02*
X302768Y698497D01*
X290072Y713732D02*
X287533Y711193D01*
Y706114D01*
X290072Y703575D01*
X292611D01*
X295151Y706114D01*
Y711193D01*
X297690Y713732D01*
X300229D01*
X302768Y711193D01*
Y706114D01*
X300229Y703575D01*
X287533Y718810D02*
Y728967D01*
Y723888D01*
X302768D01*
X329946Y710438D02*
Y725673D01*
X337564D01*
X340103Y723134D01*
Y718055D01*
X337564Y715516D01*
X329946D01*
X345181Y710438D02*
Y725673D01*
X352799D01*
X355338Y723134D01*
Y718055D01*
X352799Y715516D01*
X345181D01*
X350259D02*
X355338Y710438D01*
X368034Y725673D02*
X362955D01*
X360416Y723134D01*
Y712977D01*
X362955Y710438D01*
X368034D01*
X370573Y712977D01*
Y723134D01*
X368034Y725673D01*
X385808Y723134D02*
X383269Y725673D01*
X378190D01*
X375651Y723134D01*
Y712977D01*
X378190Y710438D01*
X383269D01*
X385808Y712977D01*
Y718055D01*
X380730D01*
X414025Y723900D02*
X426721D01*
X429260Y726439D01*
Y731517D01*
X426721Y734057D01*
X414025D01*
X429260Y739135D02*
X419103D01*
X414025Y744213D01*
X419103Y749292D01*
X429260D01*
X421642D01*
Y739135D01*
X429260Y754370D02*
X414025D01*
Y761988D01*
X416564Y764527D01*
X421642D01*
X424182Y761988D01*
Y754370D01*
Y759448D02*
X429260Y764527D01*
X414025Y769605D02*
Y779762D01*
Y774684D01*
X429260D01*
X320802Y256789D02*
Y246632D01*
X325880Y241554D01*
X330959Y246632D01*
Y256789D01*
X336037D02*
X341115D01*
X338576D01*
Y241554D01*
X336037D01*
X341115D01*
X348733D02*
Y256789D01*
X358890Y241554D01*
Y256789D01*
X379203Y241554D02*
X384282D01*
X381742D01*
Y256789D01*
X379203Y254250D01*
X402056Y241554D02*
X391899D01*
X402056Y251711D01*
Y254250D01*
X399516Y256789D01*
X394438D01*
X391899Y254250D01*
X407134Y256789D02*
Y246632D01*
X412212Y241554D01*
X417291Y246632D01*
Y256789D01*
X928375Y335277D02*
Y330199D01*
X930914Y327660D01*
X941071D01*
X943610Y330199D01*
Y335277D01*
X941071Y337817D01*
X930914D01*
X928375Y335277D01*
Y342895D02*
X941071D01*
X943610Y345434D01*
Y350513D01*
X941071Y353052D01*
X928375D01*
Y358130D02*
Y368287D01*
Y363209D01*
X943610D01*
X935993Y373365D02*
Y383522D01*
X943610Y398757D02*
Y388600D01*
X933453Y398757D01*
X930914D01*
X928375Y396218D01*
Y391139D01*
X930914Y388600D01*
X928375Y454658D02*
Y449579D01*
X930914Y447040D01*
X941071D01*
X943610Y449579D01*
Y454658D01*
X941071Y457197D01*
X930914D01*
X928375Y454658D01*
Y462275D02*
X941071D01*
X943610Y464814D01*
Y469893D01*
X941071Y472432D01*
X928375D01*
Y477510D02*
Y487667D01*
Y482589D01*
X943610D01*
X935993Y492745D02*
Y502902D01*
X943610Y507980D02*
Y513059D01*
Y510519D01*
X928375D01*
X930914Y507980D01*
X927105Y614680D02*
X937262D01*
X942340Y619758D01*
X937262Y624837D01*
X927105D01*
X934723Y629915D02*
Y640072D01*
X927105Y655307D02*
Y645150D01*
X942340D01*
Y655307D01*
X934723Y645150D02*
Y650229D01*
X927105Y660385D02*
X942340Y670542D01*
X927105D02*
X942340Y660385D01*
X927105Y675620D02*
Y685777D01*
Y680699D01*
X942340D01*
X1054354Y831342D02*
X1059434D01*
X1054354Y202184D02*
X1059434D01*
X1056894Y831342D02*
X1061974Y816102D01*
X1051814D02*
X1056894Y831342D01*
Y202184D02*
X1061974Y217424D01*
X1051814D02*
X1056894Y202184D01*
Y595733D02*
Y831342D01*
Y202184D02*
Y437793D01*
X1044977Y843788D02*
Y848868D01*
X255037Y843788D02*
Y848868D01*
X1029737Y841248D02*
X1044977Y846328D01*
X1029737Y851408D02*
X1044977Y846328D01*
X255037D02*
X270277Y841248D01*
X255037Y846328D02*
X270277Y851408D01*
X730246Y846328D02*
X1044977D01*
X255037D02*
X569768D01*
D28*
X351266Y401824D02*
X376266D01*
X413766Y359824D02*
Y379824D01*
X353766Y339824D02*
X373766D01*
D29*
X1050800Y450490D02*
X1053340Y445412D01*
X1058418Y440333D01*
X1063496D01*
X1066036Y442872D01*
Y447951D01*
X1063496Y450490D01*
X1060957D01*
X1058418Y447951D01*
Y440333D01*
X1066036Y465725D02*
Y455568D01*
X1055879Y465725D01*
X1053340D01*
X1050800Y463186D01*
Y458107D01*
X1053340Y455568D01*
X1066036Y470803D02*
X1063496D01*
Y473343D01*
X1066036D01*
Y470803D01*
X1063496Y483499D02*
X1066036Y486038D01*
Y491117D01*
X1063496Y493656D01*
X1053340D01*
X1050800Y491117D01*
Y486038D01*
X1053340Y483499D01*
X1055879D01*
X1058418Y486038D01*
Y493656D01*
X1066036Y498734D02*
Y503813D01*
Y501273D01*
X1050800D01*
X1053340Y498734D01*
X1050800Y521587D02*
X1053340Y516509D01*
X1058418Y511430D01*
X1063496D01*
X1066036Y513969D01*
Y519048D01*
X1063496Y521587D01*
X1060957D01*
X1058418Y519048D01*
Y511430D01*
X1066036Y546979D02*
X1060957Y541900D01*
X1055879D01*
X1050800Y546979D01*
X1066036Y554596D02*
X1055879D01*
Y557135D01*
X1058418Y559675D01*
X1066036D01*
X1058418D01*
X1055879Y562214D01*
X1058418Y564753D01*
X1066036D01*
Y569831D02*
X1055879D01*
Y572370D01*
X1058418Y574910D01*
X1066036D01*
X1058418D01*
X1055879Y577449D01*
X1058418Y579988D01*
X1066036D01*
Y585066D02*
X1060957Y590145D01*
X1055879D01*
X1050800Y585066D01*
X572308Y852421D02*
X582464D01*
Y849882D01*
X572308Y839726D01*
Y837187D01*
X587543Y849882D02*
X590082Y852421D01*
X595160D01*
X597699Y849882D01*
Y847343D01*
X595160Y844804D01*
X597699Y842265D01*
Y839726D01*
X595160Y837187D01*
X590082D01*
X587543Y839726D01*
Y842265D01*
X590082Y844804D01*
X587543Y847343D01*
Y849882D01*
X590082Y844804D02*
X595160D01*
X602778Y837187D02*
Y839726D01*
X605317D01*
Y837187D01*
X602778D01*
X615474Y839726D02*
X618013Y837187D01*
X623091D01*
X625630Y839726D01*
Y849882D01*
X623091Y852421D01*
X618013D01*
X615474Y849882D01*
Y847343D01*
X618013Y844804D01*
X625630D01*
X630709Y839726D02*
X633248Y837187D01*
X638326D01*
X640865Y839726D01*
Y849882D01*
X638326Y852421D01*
X633248D01*
X630709Y849882D01*
Y847343D01*
X633248Y844804D01*
X640865D01*
X653561Y837187D02*
Y852421D01*
X645944Y844804D01*
X656100D01*
X681492Y837187D02*
X676414Y842265D01*
Y847343D01*
X681492Y852421D01*
X689110Y837187D02*
Y847343D01*
X691649D01*
X694188Y844804D01*
Y837187D01*
Y844804D01*
X696727Y847343D01*
X699267Y844804D01*
Y837187D01*
X704345D02*
Y847343D01*
X706884D01*
X709423Y844804D01*
Y837187D01*
Y844804D01*
X711962Y847343D01*
X714502Y844804D01*
Y837187D01*
X719580D02*
X724658Y842265D01*
Y847343D01*
X719580Y852421D01*
D43*
X883720Y613190D02*
G03*
X883720Y613190I-1250J0D01*
G01*
X745290D02*
G03*
X745290Y613190I-1250J0D01*
G01*
X575430Y367040D02*
G03*
X575430Y367040I-1250J0D01*
G01*
D44*
X562356Y708660D02*
X689356D01*
X562356Y759460D02*
X689356D01*
X562356Y708660D02*
Y759460D01*
X689356Y708660D02*
Y759460D01*
X298196Y733806D02*
Y759206D01*
X399796D01*
X298196Y733806D02*
X399796D01*
Y759206D01*
X947420Y577850D02*
X998220D01*
X947420Y552450D02*
Y577850D01*
Y552450D02*
X998220D01*
Y577850D01*
X946150Y300990D02*
X996950D01*
X946150Y275590D02*
Y300990D01*
Y275590D02*
X996950D01*
Y300990D01*
X948060Y313620D02*
X960560D01*
X948060D02*
Y413620D01*
X1026060D01*
Y313620D02*
Y413620D01*
X958060Y308620D02*
X968060D01*
X965560Y313620D02*
X968060Y308620D01*
X965560Y313620D02*
X1026060D01*
X958060Y308620D02*
X960560Y313620D01*
X948060Y430460D02*
X960560D01*
X948060D02*
Y530460D01*
X1026060D01*
Y430460D02*
Y530460D01*
X958060Y425460D02*
X968060D01*
X965560Y430460D02*
X968060Y425460D01*
X965560Y430460D02*
X1026060D01*
X958060Y425460D02*
X960560Y430460D01*
X948060Y599840D02*
X960560D01*
X948060D02*
Y699840D01*
X1026060D01*
Y599840D02*
Y699840D01*
X958060Y594840D02*
X968060D01*
X965560Y599840D02*
X968060Y594840D01*
X965560Y599840D02*
X1026060D01*
X958060Y594840D02*
X960560Y599840D01*
X804080Y595660D02*
X857080D01*
X804080Y567660D02*
X857080D01*
Y595660D01*
X664380Y598200D02*
X717380D01*
X664380Y570200D02*
X717380D01*
Y598200D01*
X864220Y638190D02*
Y646190D01*
X873220D01*
X864220Y616190D02*
Y624190D01*
Y616190D02*
X873220D01*
X725790Y638190D02*
Y646190D01*
X734790D01*
X725790Y616190D02*
Y624190D01*
Y616190D02*
X734790D01*
X410210Y667258D02*
Y718058D01*
Y667258D02*
X435610D01*
Y718058D01*
X410210D02*
X435610D01*
X472600Y718670D02*
Y731670D01*
Y694540D02*
Y707540D01*
Y670410D02*
Y683410D01*
X439260Y441810D02*
Y454810D01*
Y416410D02*
Y429410D01*
X517680Y301540D02*
X584680D01*
X517680D02*
Y338540D01*
X584680D01*
Y301540D02*
Y338540D01*
X735180Y680560D02*
X748180D01*
X873610Y679610D02*
X886610D01*
X318766Y410824D02*
X341766Y410824D01*
X318766Y264824D02*
Y410824D01*
Y264824D02*
X408766D01*
X385766Y410824D02*
X408766D01*
Y391824D02*
Y410824D01*
Y264824D02*
Y347824D01*
D45*
X262890Y708660D02*
X275590D01*
X262890D02*
X265430Y706120D01*
X262890Y708660D02*
X265430Y711200D01*
X269240Y702310D02*
Y715010D01*
X283210Y681990D02*
Y735330D01*
X255270Y681990D02*
X283210D01*
X255270D02*
Y735330D01*
X283210D01*
D46*
X453550Y715010D02*
X491650D01*
X453550D02*
Y735330D01*
X491650D01*
Y715010D02*
Y735330D01*
X453550Y690880D02*
X491650D01*
X453550D02*
Y711200D01*
X491650D01*
Y690880D02*
Y711200D01*
X453550Y666750D02*
X491650D01*
X453550D02*
Y687070D01*
X491650D01*
Y666750D02*
Y687070D01*
X420210Y458470D02*
X458310D01*
Y438150D02*
Y458470D01*
X420210Y438150D02*
X458310D01*
X420210D02*
Y458470D01*
Y433070D02*
X458310D01*
Y412750D02*
Y433070D01*
X420210Y412750D02*
X458310D01*
X420210D02*
Y433070D01*
X751840Y661510D02*
Y699610D01*
X731520Y661510D02*
X751840D01*
X731520D02*
Y699610D01*
X751840D01*
X890270Y660560D02*
Y698660D01*
X869950Y660560D02*
X890270D01*
X869950D02*
Y698660D01*
X890270D01*
D47*
X277114Y545211D02*
Y592963D01*
X277241Y544449D02*
Y593725D01*
X277368Y543941D02*
Y594233D01*
X277495Y543433D02*
Y594741D01*
X277622Y543052D02*
Y595122D01*
X277749Y542671D02*
Y595503D01*
X277876Y542417D02*
Y595757D01*
X278003Y542036D02*
Y596138D01*
Y602488D02*
Y603758D01*
X278130Y541782D02*
Y596392D01*
Y602107D02*
Y604012D01*
X278257Y541528D02*
Y578866D01*
Y593217D02*
Y596646D01*
Y601980D02*
Y604266D01*
X278384Y541274D02*
Y578104D01*
Y593852D02*
Y596900D01*
Y601853D02*
Y602742D01*
Y603504D02*
Y604393D01*
X278511Y541020D02*
Y577723D01*
Y594360D02*
Y597154D01*
Y601599D02*
Y602361D01*
Y603885D02*
Y604520D01*
X278638Y540893D02*
Y577215D01*
Y594868D02*
Y597281D01*
Y601599D02*
Y602234D01*
Y604012D02*
Y604647D01*
X278765Y540639D02*
Y576961D01*
Y595249D02*
Y597535D01*
Y601472D02*
Y601980D01*
Y604139D02*
Y604774D01*
X278892Y540385D02*
Y576580D01*
Y595503D02*
Y597662D01*
Y601345D02*
Y601853D01*
Y602234D02*
Y603377D01*
Y604266D02*
Y604774D01*
X279019Y540258D02*
Y576326D01*
Y595884D02*
Y597916D01*
Y601345D02*
Y601853D01*
Y602234D02*
Y603758D01*
Y604393D02*
Y604901D01*
X279146Y540131D02*
Y576072D01*
Y596138D02*
Y598043D01*
Y601218D02*
Y601726D01*
Y602234D02*
Y603885D01*
Y604520D02*
Y604901D01*
X279273Y539877D02*
Y575818D01*
Y596392D02*
Y598297D01*
Y601218D02*
Y601726D01*
Y602234D02*
Y602615D01*
Y603250D02*
Y603885D01*
Y604520D02*
Y605028D01*
X279400Y539750D02*
Y575564D01*
Y596646D02*
Y598424D01*
Y601218D02*
Y601599D01*
Y602234D02*
Y602615D01*
Y603377D02*
Y603885D01*
Y604647D02*
Y605028D01*
X279527Y539623D02*
Y575310D01*
Y596773D02*
Y598551D01*
Y601091D02*
Y601599D01*
Y602234D02*
Y602615D01*
Y603377D02*
Y603885D01*
Y604647D02*
Y605028D01*
X279654Y539369D02*
Y575183D01*
Y597027D02*
Y598805D01*
Y601091D02*
Y601599D01*
Y602234D02*
Y602615D01*
Y603377D02*
Y603885D01*
Y604647D02*
Y605028D01*
X279781Y539242D02*
Y574929D01*
Y597154D02*
Y598932D01*
Y601091D02*
Y601599D01*
Y602234D02*
Y603885D01*
Y604647D02*
Y605155D01*
X279908Y539115D02*
Y574802D01*
Y597408D02*
Y599059D01*
Y601091D02*
Y601599D01*
Y602234D02*
Y603758D01*
Y604647D02*
Y605155D01*
X280035Y538988D02*
Y574548D01*
Y597535D02*
Y599186D01*
Y601091D02*
Y601472D01*
Y602234D02*
Y603504D01*
Y604647D02*
Y605155D01*
X280162Y538861D02*
Y574421D01*
Y597789D02*
Y599313D01*
Y601091D02*
Y601599D01*
Y602234D02*
Y602615D01*
Y602869D02*
Y603504D01*
Y604647D02*
Y605155D01*
X280289Y538734D02*
Y574294D01*
Y597916D02*
Y599440D01*
Y601091D02*
Y601599D01*
Y602234D02*
Y602615D01*
Y603123D02*
Y603631D01*
Y604647D02*
Y605028D01*
X280416Y538607D02*
Y574167D01*
Y598043D02*
Y599567D01*
Y601091D02*
Y601599D01*
Y602234D02*
Y602615D01*
Y603123D02*
Y603758D01*
Y604647D02*
Y605028D01*
X280543Y538480D02*
Y573913D01*
Y598297D02*
Y599694D01*
Y601218D02*
Y601599D01*
Y602234D02*
Y602615D01*
Y603250D02*
Y603758D01*
Y604520D02*
Y605028D01*
X280670Y538353D02*
Y573786D01*
Y598424D02*
Y599821D01*
Y601218D02*
Y601726D01*
Y602234D02*
Y602615D01*
Y603377D02*
Y603885D01*
Y604520D02*
Y605028D01*
X280797Y538226D02*
Y573659D01*
Y598551D02*
Y599948D01*
Y601345D02*
Y601726D01*
Y602234D02*
Y602615D01*
Y603377D02*
Y604012D01*
Y604393D02*
Y604901D01*
X280924Y538099D02*
Y573532D01*
Y598678D02*
Y600075D01*
Y601345D02*
Y601853D01*
Y602234D02*
Y602615D01*
Y603504D02*
Y604012D01*
Y604393D02*
Y604901D01*
X281051Y537972D02*
Y573405D01*
Y598805D02*
Y600202D01*
Y601472D02*
Y601980D01*
Y604266D02*
Y604774D01*
X281178Y537845D02*
Y573278D01*
Y598932D02*
Y600202D01*
Y601472D02*
Y602107D01*
Y604012D02*
Y604647D01*
X281305Y537845D02*
Y573151D01*
Y599059D02*
Y600329D01*
Y601599D02*
Y602361D01*
Y603885D02*
Y604520D01*
X281432Y537718D02*
Y573151D01*
Y599186D02*
Y600456D01*
Y601726D02*
Y602615D01*
Y603631D02*
Y604393D01*
X281559Y537591D02*
Y573024D01*
Y599313D02*
Y600583D01*
Y601980D02*
Y604266D01*
X281686Y537464D02*
Y572897D01*
Y599313D02*
Y600710D01*
Y602107D02*
Y604139D01*
X281813Y537464D02*
Y572770D01*
Y599440D02*
Y600710D01*
Y602488D02*
Y603758D01*
X281940Y537337D02*
Y572643D01*
Y599567D02*
Y600837D01*
X282067Y537210D02*
Y572516D01*
Y599694D02*
Y600964D01*
X282194Y537083D02*
Y572516D01*
Y599821D02*
Y600964D01*
X282321Y537083D02*
Y572389D01*
Y599821D02*
Y601091D01*
X282448Y536956D02*
Y572262D01*
Y599948D02*
Y601218D01*
X282575Y536956D02*
Y572262D01*
Y600075D02*
Y601218D01*
X282702Y536829D02*
Y572135D01*
Y600075D02*
Y601345D01*
X282829Y536702D02*
Y572008D01*
Y600202D02*
Y601345D01*
X282956Y536702D02*
Y572008D01*
Y600329D02*
Y601472D01*
X283083Y536575D02*
Y571881D01*
Y600329D02*
Y601599D01*
X283210Y536575D02*
Y571881D01*
Y600456D02*
Y601599D01*
X283337Y536448D02*
Y571754D01*
Y600456D02*
Y601726D01*
X283464Y536448D02*
Y571754D01*
Y600583D02*
Y601726D01*
X283591Y536321D02*
Y571627D01*
Y600710D02*
Y601853D01*
X283718Y536321D02*
Y564134D01*
Y564769D02*
Y571627D01*
Y591058D02*
Y591566D01*
Y600710D02*
Y601853D01*
X283845Y536194D02*
Y563626D01*
Y565150D02*
Y571500D01*
Y590550D02*
Y592074D01*
Y600837D02*
Y601853D01*
X283972Y536194D02*
Y563372D01*
Y565404D02*
Y571500D01*
Y590296D02*
Y592328D01*
Y600837D02*
Y601980D01*
X284099Y536194D02*
Y541274D01*
Y541401D02*
Y541528D01*
Y543814D02*
Y544068D01*
Y544195D02*
Y549656D01*
Y551942D02*
Y552069D01*
Y552196D02*
Y552450D01*
Y552577D02*
Y557911D01*
Y560705D02*
Y560832D01*
Y560959D02*
Y563245D01*
Y565658D02*
Y571373D01*
Y590169D02*
Y592582D01*
Y600837D02*
Y601980D01*
X284226Y536067D02*
Y541147D01*
Y544576D02*
Y549656D01*
Y552577D02*
Y557784D01*
Y560959D02*
Y563118D01*
Y565785D02*
Y571373D01*
Y575818D02*
Y587375D01*
Y590042D02*
Y592709D01*
Y600964D02*
Y602107D01*
X284353Y536067D02*
Y541147D01*
Y544576D02*
Y549656D01*
Y552704D02*
Y557784D01*
Y560959D02*
Y562991D01*
Y565912D02*
Y571373D01*
Y575818D02*
Y587502D01*
Y589915D02*
Y592836D01*
Y600964D02*
Y602107D01*
X284480Y535940D02*
Y541274D01*
Y544576D02*
Y549529D01*
Y552704D02*
Y557784D01*
Y560832D02*
Y562864D01*
Y566039D02*
Y571246D01*
Y575818D02*
Y587375D01*
Y589788D02*
Y592836D01*
Y601091D02*
Y602107D01*
X284607Y535940D02*
Y541274D01*
Y544576D02*
Y549529D01*
Y552704D02*
Y557657D01*
Y560832D02*
Y562737D01*
Y566039D02*
Y571246D01*
Y575818D02*
Y587375D01*
Y589661D02*
Y592963D01*
Y601091D02*
Y602234D01*
X284734Y535940D02*
Y541274D01*
Y544703D02*
Y549529D01*
Y552704D02*
Y557657D01*
Y560832D02*
Y562737D01*
Y566166D02*
Y571119D01*
Y575818D02*
Y587375D01*
Y589661D02*
Y593090D01*
Y601091D02*
Y602234D01*
X284861Y535813D02*
Y541274D01*
Y544703D02*
Y549402D01*
Y552831D02*
Y557657D01*
Y560832D02*
Y562610D01*
Y566166D02*
Y571119D01*
Y575818D02*
Y587375D01*
Y589534D02*
Y593090D01*
Y601218D02*
Y602361D01*
X284988Y535813D02*
Y541401D01*
Y544703D02*
Y549402D01*
Y552831D02*
Y557657D01*
Y560705D02*
Y562610D01*
Y566293D02*
Y571119D01*
Y575818D02*
Y587375D01*
Y589534D02*
Y593217D01*
Y601218D02*
Y602361D01*
X285115Y535813D02*
Y541401D01*
Y544703D02*
Y549402D01*
Y552831D02*
Y557657D01*
Y560705D02*
Y562610D01*
Y566293D02*
Y570992D01*
Y575818D02*
Y587375D01*
Y589534D02*
Y593217D01*
Y601345D02*
Y602361D01*
X285242Y535686D02*
Y541401D01*
Y544830D02*
Y549275D01*
Y552958D02*
Y557530D01*
Y560705D02*
Y562483D01*
Y566293D02*
Y570992D01*
Y575818D02*
Y587375D01*
Y589407D02*
Y593217D01*
Y601345D02*
Y602361D01*
X285369Y535686D02*
Y541401D01*
Y544830D02*
Y549275D01*
Y552958D02*
Y557530D01*
Y560705D02*
Y562483D01*
Y566293D02*
Y570992D01*
Y575818D02*
Y587375D01*
Y589407D02*
Y593217D01*
Y601345D02*
Y602488D01*
X285496Y535686D02*
Y541528D01*
Y544830D02*
Y549275D01*
Y552958D02*
Y557530D01*
Y560578D02*
Y562483D01*
Y566293D02*
Y570992D01*
Y575818D02*
Y587375D01*
Y589407D02*
Y593217D01*
Y601345D02*
Y602488D01*
X285623Y535686D02*
Y541528D01*
Y544830D02*
Y549275D01*
Y552958D02*
Y557530D01*
Y560578D02*
Y562483D01*
Y566420D02*
Y570865D01*
Y575818D02*
Y587375D01*
Y589407D02*
Y593217D01*
Y601472D02*
Y602488D01*
X285750Y535559D02*
Y541528D01*
Y544830D02*
Y549148D01*
Y553085D02*
Y557403D01*
Y560578D02*
Y562483D01*
Y566293D02*
Y570865D01*
Y575818D02*
Y587375D01*
Y589407D02*
Y593217D01*
Y601472D02*
Y602615D01*
X285877Y535559D02*
Y541528D01*
Y544957D02*
Y549148D01*
Y553085D02*
Y557403D01*
Y560578D02*
Y562483D01*
Y566293D02*
Y570865D01*
Y575818D02*
Y587375D01*
Y589407D02*
Y593217D01*
Y601472D02*
Y602615D01*
X286004Y535559D02*
Y541655D01*
Y544957D02*
Y549148D01*
Y553085D02*
Y557403D01*
Y560451D02*
Y562610D01*
Y566293D02*
Y570865D01*
Y575818D02*
Y587375D01*
Y589407D02*
Y593217D01*
Y601472D02*
Y602615D01*
X286131Y535559D02*
Y541655D01*
Y544957D02*
Y549021D01*
Y553212D02*
Y557403D01*
Y560451D02*
Y562610D01*
Y566293D02*
Y570738D01*
Y575818D02*
Y587375D01*
Y589534D02*
Y593217D01*
Y601599D02*
Y602615D01*
X286258Y535559D02*
Y541655D01*
Y544957D02*
Y549021D01*
Y553212D02*
Y557276D01*
Y560451D02*
Y562610D01*
Y566293D02*
Y570738D01*
Y575818D02*
Y587375D01*
Y589534D02*
Y593090D01*
Y601599D02*
Y602615D01*
X286385Y535432D02*
Y541782D01*
Y545084D02*
Y549021D01*
Y553212D02*
Y557276D01*
Y560451D02*
Y562610D01*
Y566166D02*
Y570738D01*
Y575818D02*
Y587375D01*
Y589534D02*
Y593090D01*
Y601599D02*
Y602742D01*
X286512Y535432D02*
Y541782D01*
Y545084D02*
Y549021D01*
Y553212D02*
Y557276D01*
Y560324D02*
Y562737D01*
Y566166D02*
Y570738D01*
Y575818D02*
Y587375D01*
Y589661D02*
Y593090D01*
Y601599D02*
Y602742D01*
X286639Y535432D02*
Y541782D01*
Y545084D02*
Y548894D01*
Y553339D02*
Y557276D01*
Y560324D02*
Y562737D01*
Y566039D02*
Y570738D01*
Y575818D02*
Y587375D01*
Y589661D02*
Y592963D01*
Y601599D02*
Y602742D01*
X286766Y535432D02*
Y541782D01*
Y545084D02*
Y548894D01*
Y553339D02*
Y557149D01*
Y560324D02*
Y562864D01*
Y565912D02*
Y570738D01*
Y575818D02*
Y587375D01*
Y589788D02*
Y592836D01*
Y601726D02*
Y602742D01*
X286893Y535432D02*
Y541909D01*
Y545084D02*
Y548894D01*
Y553339D02*
Y557149D01*
Y560197D02*
Y562991D01*
Y565912D02*
Y570738D01*
Y575818D02*
Y587375D01*
Y589915D02*
Y592836D01*
Y601726D02*
Y602742D01*
X287020Y535432D02*
Y541909D01*
Y545211D02*
Y548767D01*
Y553466D02*
Y557149D01*
Y560197D02*
Y563118D01*
Y565785D02*
Y570611D01*
Y575818D02*
Y587502D01*
Y590042D02*
Y592709D01*
Y601726D02*
Y602742D01*
X287147Y535432D02*
Y541909D01*
Y545211D02*
Y548767D01*
Y553466D02*
Y557149D01*
Y560197D02*
Y563245D01*
Y565658D02*
Y570611D01*
Y575818D02*
Y587375D01*
Y590169D02*
Y592455D01*
Y601726D02*
Y602742D01*
X287274Y535305D02*
Y541909D01*
Y545211D02*
Y548767D01*
Y553466D02*
Y557149D01*
Y560197D02*
Y563499D01*
Y565404D02*
Y570611D01*
Y575818D02*
Y579247D01*
Y590296D02*
Y592328D01*
Y601726D02*
Y602869D01*
X287401Y535305D02*
Y542036D01*
Y545211D02*
Y548640D01*
Y553466D02*
Y557022D01*
Y560070D02*
Y563753D01*
Y565150D02*
Y570611D01*
Y575818D02*
Y579247D01*
Y590677D02*
Y592074D01*
Y601726D02*
Y602869D01*
X287528Y535305D02*
Y542036D01*
Y545338D02*
Y548640D01*
Y553593D02*
Y557022D01*
Y560070D02*
Y564261D01*
Y564388D02*
Y570611D01*
Y575818D02*
Y579247D01*
Y591185D02*
Y591312D01*
Y601726D02*
Y602869D01*
X287655Y535305D02*
Y542036D01*
Y545338D02*
Y548640D01*
Y553593D02*
Y557022D01*
Y560070D02*
Y570611D01*
Y575818D02*
Y579247D01*
Y601726D02*
Y602869D01*
X287782Y535305D02*
Y542036D01*
Y545338D02*
Y548640D01*
Y553593D02*
Y557022D01*
Y560070D02*
Y570611D01*
Y575818D02*
Y579247D01*
Y601726D02*
Y602869D01*
X287909Y535305D02*
Y542163D01*
Y545338D02*
Y548513D01*
Y553720D02*
Y557022D01*
Y559943D02*
Y570611D01*
Y575818D02*
Y579247D01*
Y601726D02*
Y602869D01*
X288036Y535305D02*
Y542163D01*
Y545338D02*
Y548513D01*
Y553720D02*
Y556895D01*
Y559943D02*
Y570611D01*
Y575818D02*
Y579247D01*
Y601726D02*
Y602869D01*
X288163Y535305D02*
Y542163D01*
Y545465D02*
Y548513D01*
Y553720D02*
Y556895D01*
Y559943D02*
Y570611D01*
Y575818D02*
Y579247D01*
Y601726D02*
Y602869D01*
X288290Y535305D02*
Y542290D01*
Y545465D02*
Y548386D01*
Y553720D02*
Y556895D01*
Y559943D02*
Y570611D01*
Y575818D02*
Y579247D01*
Y601726D02*
Y602869D01*
X288417Y535305D02*
Y542290D01*
Y545465D02*
Y548386D01*
Y553847D02*
Y556895D01*
Y559816D02*
Y570611D01*
Y575818D02*
Y579247D01*
Y601726D02*
Y602869D01*
X288544Y535305D02*
Y542290D01*
Y545465D02*
Y548386D01*
Y553847D02*
Y556768D01*
Y559816D02*
Y570611D01*
Y575818D02*
Y579247D01*
Y601726D02*
Y602869D01*
X288671Y535305D02*
Y542290D01*
Y545592D02*
Y548386D01*
Y553847D02*
Y556768D01*
Y559816D02*
Y570611D01*
Y575818D02*
Y579247D01*
Y601726D02*
Y602869D01*
X288798Y535305D02*
Y542417D01*
Y545592D02*
Y548259D01*
Y553974D02*
Y556768D01*
Y559816D02*
Y570611D01*
Y575818D02*
Y579247D01*
Y601726D02*
Y602869D01*
X288925Y535305D02*
Y542417D01*
Y545592D02*
Y548259D01*
Y553974D02*
Y556768D01*
Y559689D02*
Y570611D01*
Y575818D02*
Y579247D01*
Y601726D02*
Y602869D01*
X289052Y535305D02*
Y542417D01*
Y545592D02*
Y548259D01*
Y550926D02*
Y551053D01*
Y553974D02*
Y556641D01*
Y559689D02*
Y562737D01*
Y566039D02*
Y570611D01*
Y575818D02*
Y579247D01*
Y589661D02*
Y592963D01*
Y601726D02*
Y602869D01*
X289179Y535305D02*
Y542417D01*
Y545719D02*
Y548132D01*
Y550926D02*
Y551180D01*
Y553974D02*
Y556641D01*
Y559689D02*
Y562737D01*
Y566039D02*
Y570611D01*
Y575818D02*
Y579247D01*
Y589661D02*
Y592963D01*
Y601726D02*
Y602869D01*
X289306Y535305D02*
Y542544D01*
Y545719D02*
Y548132D01*
Y550926D02*
Y551180D01*
Y554101D02*
Y556641D01*
Y559562D02*
Y562737D01*
Y566039D02*
Y570611D01*
Y575818D02*
Y579247D01*
Y589661D02*
Y592963D01*
Y601726D02*
Y602869D01*
X289433Y535305D02*
Y542544D01*
Y545719D02*
Y548132D01*
Y550926D02*
Y551180D01*
Y554101D02*
Y556641D01*
Y559562D02*
Y562737D01*
Y566039D02*
Y570611D01*
Y575818D02*
Y579247D01*
Y589661D02*
Y592963D01*
Y601726D02*
Y602869D01*
X289560Y535305D02*
Y542544D01*
Y545719D02*
Y548005D01*
Y550799D02*
Y551180D01*
Y554101D02*
Y556514D01*
Y559562D02*
Y562737D01*
Y566039D02*
Y570611D01*
Y575818D02*
Y579247D01*
Y589661D02*
Y592963D01*
Y601726D02*
Y602869D01*
X289687Y535305D02*
Y542544D01*
Y545719D02*
Y548005D01*
Y550799D02*
Y551307D01*
Y554101D02*
Y556514D01*
Y559562D02*
Y562864D01*
Y566039D02*
Y570611D01*
Y575818D02*
Y579247D01*
Y589661D02*
Y592963D01*
Y601726D02*
Y602869D01*
X289814Y535305D02*
Y542671D01*
Y545846D02*
Y548005D01*
Y550799D02*
Y551307D01*
Y554228D02*
Y556514D01*
Y559435D02*
Y562737D01*
Y566039D02*
Y570611D01*
Y575818D02*
Y579247D01*
Y589661D02*
Y592963D01*
Y601726D02*
Y602869D01*
X289941Y535305D02*
Y542671D01*
Y545846D02*
Y548005D01*
Y550672D02*
Y551307D01*
Y554228D02*
Y556514D01*
Y559435D02*
Y562737D01*
Y566039D02*
Y570611D01*
Y575818D02*
Y579247D01*
Y589661D02*
Y592963D01*
Y601726D02*
Y602869D01*
X290068Y535305D02*
Y542671D01*
Y545846D02*
Y547878D01*
Y550672D02*
Y551434D01*
Y554228D02*
Y556514D01*
Y559435D02*
Y562737D01*
Y566039D02*
Y570611D01*
Y575818D02*
Y579247D01*
Y589661D02*
Y592963D01*
Y601726D02*
Y602869D01*
X290195Y535305D02*
Y542798D01*
Y545846D02*
Y547878D01*
Y550672D02*
Y551434D01*
Y554355D02*
Y556387D01*
Y559435D02*
Y562737D01*
Y566039D02*
Y570611D01*
Y575818D02*
Y579247D01*
Y589661D02*
Y592963D01*
Y601726D02*
Y602869D01*
X290322Y535305D02*
Y542798D01*
Y545973D02*
Y547878D01*
Y550672D02*
Y551434D01*
Y554355D02*
Y556387D01*
Y559308D02*
Y562737D01*
Y566039D02*
Y570611D01*
Y575818D02*
Y579247D01*
Y589661D02*
Y592963D01*
Y601726D02*
Y602869D01*
X290449Y535305D02*
Y542798D01*
Y545973D02*
Y547751D01*
Y550545D02*
Y551434D01*
Y554355D02*
Y556387D01*
Y559308D02*
Y562737D01*
Y566039D02*
Y570611D01*
Y575818D02*
Y586867D01*
Y589661D02*
Y592963D01*
Y601726D02*
Y602869D01*
X290576Y535305D02*
Y542798D01*
Y545973D02*
Y547751D01*
Y550545D02*
Y551561D01*
Y554355D02*
Y556387D01*
Y559308D02*
Y562737D01*
Y566039D02*
Y570611D01*
Y575818D02*
Y586867D01*
Y589661D02*
Y592963D01*
Y601726D02*
Y602869D01*
X290703Y535305D02*
Y542925D01*
Y545973D02*
Y547751D01*
Y550545D02*
Y551561D01*
Y554482D02*
Y556260D01*
Y559308D02*
Y562737D01*
Y566039D02*
Y570611D01*
Y575818D02*
Y586867D01*
Y589661D02*
Y592963D01*
Y601726D02*
Y602869D01*
X290830Y535305D02*
Y542925D01*
Y545973D02*
Y547624D01*
Y550418D02*
Y551561D01*
Y554482D02*
Y556260D01*
Y559181D02*
Y562737D01*
Y566039D02*
Y570611D01*
Y575818D02*
Y586867D01*
Y589661D02*
Y592963D01*
Y601726D02*
Y602869D01*
X290957Y535305D02*
Y542925D01*
Y546100D02*
Y547624D01*
Y550418D02*
Y551688D01*
Y554482D02*
Y556260D01*
Y559181D02*
Y562737D01*
Y566039D02*
Y570611D01*
Y575818D02*
Y586867D01*
Y589661D02*
Y592963D01*
Y601726D02*
Y602869D01*
X291084Y535305D02*
Y542925D01*
Y546100D02*
Y547624D01*
Y550418D02*
Y551688D01*
Y554609D02*
Y556260D01*
Y559181D02*
Y562737D01*
Y566039D02*
Y570611D01*
Y575818D02*
Y586867D01*
Y589661D02*
Y592963D01*
Y601726D02*
Y602869D01*
X291211Y535305D02*
Y543052D01*
Y546100D02*
Y547624D01*
Y550418D02*
Y551688D01*
Y554609D02*
Y556133D01*
Y559054D02*
Y562737D01*
Y566039D02*
Y570611D01*
Y575818D02*
Y586867D01*
Y589661D02*
Y592963D01*
Y601726D02*
Y602869D01*
X291338Y535305D02*
Y543052D01*
Y546100D02*
Y547497D01*
Y550291D02*
Y551688D01*
Y554609D02*
Y556133D01*
Y559054D02*
Y562737D01*
Y566039D02*
Y570611D01*
Y575818D02*
Y586867D01*
Y589661D02*
Y592963D01*
Y601726D02*
Y602869D01*
X291465Y535305D02*
Y543052D01*
Y546227D02*
Y547497D01*
Y550291D02*
Y551815D01*
Y554609D02*
Y556133D01*
Y559054D02*
Y562737D01*
Y566039D02*
Y570611D01*
Y575818D02*
Y586867D01*
Y589661D02*
Y592963D01*
Y601726D02*
Y602869D01*
X291592Y535305D02*
Y543179D01*
Y546227D02*
Y547497D01*
Y550291D02*
Y551815D01*
Y554736D02*
Y556133D01*
Y559054D02*
Y562737D01*
Y566039D02*
Y570611D01*
Y575818D02*
Y586867D01*
Y589661D02*
Y592963D01*
Y601726D02*
Y602869D01*
X291719Y535305D02*
Y543179D01*
Y546227D02*
Y547370D01*
Y550164D02*
Y551815D01*
Y554736D02*
Y556133D01*
Y558927D02*
Y562737D01*
Y566039D02*
Y570611D01*
Y575818D02*
Y586867D01*
Y589661D02*
Y592963D01*
Y601726D02*
Y602869D01*
X291846Y535305D02*
Y543179D01*
Y546227D02*
Y547370D01*
Y550164D02*
Y551942D01*
Y554736D02*
Y556006D01*
Y558927D02*
Y562737D01*
Y566039D02*
Y570611D01*
Y575818D02*
Y586867D01*
Y589661D02*
Y592963D01*
Y601726D02*
Y602869D01*
X291973Y535305D02*
Y543179D01*
Y546227D02*
Y547370D01*
Y550164D02*
Y551942D01*
Y554863D02*
Y556006D01*
Y558927D02*
Y562737D01*
Y566039D02*
Y570611D01*
Y575818D02*
Y586867D01*
Y589661D02*
Y592963D01*
Y601726D02*
Y602869D01*
X292100Y535305D02*
Y543306D01*
Y546354D02*
Y547370D01*
Y550164D02*
Y551942D01*
Y554863D02*
Y556006D01*
Y558927D02*
Y562737D01*
Y566039D02*
Y570611D01*
Y575818D02*
Y586867D01*
Y589661D02*
Y592963D01*
Y601726D02*
Y602869D01*
X292227Y535305D02*
Y543306D01*
Y546354D02*
Y547243D01*
Y550037D02*
Y551942D01*
Y554863D02*
Y556006D01*
Y558800D02*
Y562737D01*
Y566039D02*
Y570611D01*
Y575818D02*
Y586867D01*
Y589661D02*
Y592963D01*
Y601726D02*
Y602869D01*
X292354Y535305D02*
Y543306D01*
Y546354D02*
Y547243D01*
Y550037D02*
Y552069D01*
Y554990D02*
Y555879D01*
Y558800D02*
Y562737D01*
Y566039D02*
Y570611D01*
Y575818D02*
Y586867D01*
Y589661D02*
Y592963D01*
Y601726D02*
Y602869D01*
X292481Y535305D02*
Y543306D01*
Y546354D02*
Y547243D01*
Y550037D02*
Y552069D01*
Y554990D02*
Y555879D01*
Y558800D02*
Y562737D01*
Y566039D02*
Y570611D01*
Y575818D02*
Y586867D01*
Y589661D02*
Y592963D01*
Y601726D02*
Y602869D01*
X292608Y535305D02*
Y543433D01*
Y546481D02*
Y547116D01*
Y549910D02*
Y552069D01*
Y554990D02*
Y555879D01*
Y558800D02*
Y562737D01*
Y566039D02*
Y570611D01*
Y575818D02*
Y586867D01*
Y589661D02*
Y592963D01*
Y601726D02*
Y602869D01*
X292735Y535305D02*
Y543433D01*
Y546481D02*
Y547116D01*
Y549910D02*
Y552196D01*
Y554990D02*
Y555879D01*
Y558673D02*
Y562737D01*
Y566039D02*
Y570611D01*
Y575818D02*
Y586867D01*
Y589661D02*
Y592963D01*
Y601726D02*
Y602869D01*
X292862Y535305D02*
Y543433D01*
Y546481D02*
Y547116D01*
Y549910D02*
Y552196D01*
Y555117D02*
Y555752D01*
Y558673D02*
Y562737D01*
Y566039D02*
Y570611D01*
Y575818D02*
Y586867D01*
Y589661D02*
Y592963D01*
Y601726D02*
Y602869D01*
X292989Y535305D02*
Y543433D01*
Y546481D02*
Y546989D01*
Y549910D02*
Y552196D01*
Y555117D02*
Y555752D01*
Y558673D02*
Y562737D01*
Y566039D02*
Y570611D01*
Y575818D02*
Y586867D01*
Y589661D02*
Y592963D01*
Y601726D02*
Y602869D01*
X293116Y535305D02*
Y543560D01*
Y546481D02*
Y546989D01*
Y549783D02*
Y552196D01*
Y555117D02*
Y555752D01*
Y558673D02*
Y562737D01*
Y566039D02*
Y570611D01*
Y575818D02*
Y586867D01*
Y589661D02*
Y592963D01*
Y601726D02*
Y602869D01*
X293243Y535305D02*
Y543560D01*
Y546608D02*
Y546989D01*
Y549783D02*
Y552323D01*
Y555117D02*
Y555752D01*
Y558546D02*
Y562737D01*
Y566039D02*
Y570611D01*
Y575818D02*
Y586867D01*
Y589661D02*
Y592963D01*
Y601726D02*
Y602869D01*
X293370Y535305D02*
Y543560D01*
Y546608D02*
Y546989D01*
Y549783D02*
Y552323D01*
Y555244D02*
Y555752D01*
Y558546D02*
Y562737D01*
Y566039D02*
Y570611D01*
Y575818D02*
Y586867D01*
Y589661D02*
Y592963D01*
Y601726D02*
Y602869D01*
X293497Y535305D02*
Y543687D01*
Y546608D02*
Y546862D01*
Y549656D02*
Y552323D01*
Y555244D02*
Y555625D01*
Y558546D02*
Y562737D01*
Y566039D02*
Y570611D01*
Y575818D02*
Y586867D01*
Y589661D02*
Y592963D01*
Y601726D02*
Y602869D01*
X293624Y535305D02*
Y543687D01*
Y546608D02*
Y546862D01*
Y549656D02*
Y552450D01*
Y555244D02*
Y555625D01*
Y558419D02*
Y562737D01*
Y566039D02*
Y570611D01*
Y575818D02*
Y579247D01*
Y589661D02*
Y592963D01*
Y601726D02*
Y602869D01*
X293751Y535305D02*
Y543687D01*
Y546735D02*
Y546862D01*
Y549656D02*
Y552450D01*
Y555371D02*
Y555625D01*
Y558419D02*
Y562737D01*
Y566039D02*
Y570611D01*
Y575818D02*
Y579247D01*
Y589661D02*
Y592963D01*
Y601726D02*
Y602869D01*
X293878Y535305D02*
Y543687D01*
Y549656D02*
Y552450D01*
Y555371D02*
Y555625D01*
Y558419D02*
Y562737D01*
Y566039D02*
Y570611D01*
Y575818D02*
Y579247D01*
Y589661D02*
Y592963D01*
Y601726D02*
Y602869D01*
X294005Y535305D02*
Y543814D01*
Y549529D02*
Y552450D01*
Y555371D02*
Y555498D01*
Y558419D02*
Y562737D01*
Y566039D02*
Y570611D01*
Y575818D02*
Y579247D01*
Y589661D02*
Y592963D01*
Y601726D02*
Y602869D01*
X294132Y535305D02*
Y543814D01*
Y549529D02*
Y552577D01*
Y555371D02*
Y555498D01*
Y558292D02*
Y562737D01*
Y566039D02*
Y570611D01*
Y575818D02*
Y579247D01*
Y589661D02*
Y592963D01*
Y601726D02*
Y602869D01*
X294259Y535305D02*
Y543814D01*
Y549529D02*
Y552577D01*
Y558292D02*
Y562737D01*
Y566039D02*
Y570611D01*
Y575818D02*
Y579247D01*
Y589661D02*
Y592963D01*
Y601726D02*
Y602869D01*
X294386Y535305D02*
Y543814D01*
Y549402D02*
Y552577D01*
Y558292D02*
Y562737D01*
Y566039D02*
Y570611D01*
Y575818D02*
Y579247D01*
Y589661D02*
Y592963D01*
Y601726D02*
Y602869D01*
X294513Y535305D02*
Y543941D01*
Y549402D02*
Y552704D01*
Y558292D02*
Y562737D01*
Y566039D02*
Y570611D01*
Y575818D02*
Y579247D01*
Y589661D02*
Y592963D01*
Y601726D02*
Y602869D01*
X294640Y535305D02*
Y543941D01*
Y549402D02*
Y552704D01*
Y558165D02*
Y562737D01*
Y566039D02*
Y570611D01*
Y575818D02*
Y579247D01*
Y589661D02*
Y592963D01*
Y601726D02*
Y602869D01*
X294767Y535305D02*
Y543941D01*
Y549275D02*
Y552704D01*
Y558165D02*
Y562737D01*
Y566039D02*
Y570611D01*
Y575818D02*
Y579247D01*
Y589661D02*
Y592963D01*
Y601726D02*
Y602869D01*
X294894Y535305D02*
Y544068D01*
Y549275D02*
Y552831D01*
Y558165D02*
Y562737D01*
Y566039D02*
Y570611D01*
Y575818D02*
Y579247D01*
Y589661D02*
Y592963D01*
Y601726D02*
Y602869D01*
X295021Y535305D02*
Y544068D01*
Y549275D02*
Y552831D01*
Y558165D02*
Y562737D01*
Y566039D02*
Y570611D01*
Y575818D02*
Y579247D01*
Y589661D02*
Y592963D01*
Y601726D02*
Y602869D01*
X295148Y535305D02*
Y544068D01*
Y549275D02*
Y552831D01*
Y558038D02*
Y562737D01*
Y566039D02*
Y570611D01*
Y575818D02*
Y579247D01*
Y589661D02*
Y592963D01*
Y601726D02*
Y602869D01*
X295275Y535305D02*
Y544068D01*
Y549148D02*
Y552831D01*
Y558038D02*
Y562737D01*
Y566039D02*
Y570611D01*
Y575818D02*
Y579247D01*
Y589661D02*
Y592963D01*
Y601726D02*
Y602869D01*
X295402Y535305D02*
Y544195D01*
Y549148D02*
Y552958D01*
Y558038D02*
Y562737D01*
Y566039D02*
Y570611D01*
Y575818D02*
Y579247D01*
Y589661D02*
Y592963D01*
Y601726D02*
Y602869D01*
X295529Y535305D02*
Y544195D01*
Y549148D02*
Y552958D01*
Y558038D02*
Y562737D01*
Y566039D02*
Y570611D01*
Y575818D02*
Y579247D01*
Y589661D02*
Y592963D01*
Y601726D02*
Y602869D01*
X295656Y535305D02*
Y544195D01*
Y549021D02*
Y552958D01*
Y557911D02*
Y562737D01*
Y566039D02*
Y570611D01*
Y575818D02*
Y579247D01*
Y589661D02*
Y592963D01*
Y601726D02*
Y602869D01*
X295783Y535305D02*
Y544195D01*
Y549021D02*
Y552958D01*
Y557911D02*
Y562737D01*
Y566039D02*
Y570611D01*
Y575818D02*
Y579247D01*
Y589661D02*
Y592963D01*
Y601726D02*
Y602869D01*
X295910Y535305D02*
Y544322D01*
Y549021D02*
Y553085D01*
Y557911D02*
Y562737D01*
Y566039D02*
Y570611D01*
Y575818D02*
Y579247D01*
Y589661D02*
Y592963D01*
Y601726D02*
Y602869D01*
X296037Y535305D02*
Y544322D01*
Y549021D02*
Y553085D01*
Y557784D02*
Y562737D01*
Y566039D02*
Y570611D01*
Y575818D02*
Y579247D01*
Y589661D02*
Y592963D01*
Y601726D02*
Y602869D01*
X296164Y535305D02*
Y544322D01*
Y548894D02*
Y553085D01*
Y557784D02*
Y562737D01*
Y566039D02*
Y570611D01*
Y575818D02*
Y579247D01*
Y589661D02*
Y592963D01*
Y601726D02*
Y602869D01*
X296291Y535305D02*
Y544322D01*
Y548894D02*
Y553212D01*
Y557784D02*
Y562737D01*
Y566039D02*
Y570611D01*
Y575818D02*
Y579247D01*
Y589661D02*
Y592963D01*
Y601726D02*
Y602869D01*
X296418Y535305D02*
Y544449D01*
Y548894D02*
Y553212D01*
Y557784D02*
Y562737D01*
Y566039D02*
Y570611D01*
Y575818D02*
Y579247D01*
Y589661D02*
Y592963D01*
Y601726D02*
Y602869D01*
X296545Y535305D02*
Y544449D01*
Y548767D02*
Y553212D01*
Y557657D02*
Y562737D01*
Y566039D02*
Y570611D01*
Y575818D02*
Y579247D01*
Y589661D02*
Y592963D01*
Y601726D02*
Y602869D01*
X296672Y535432D02*
Y544449D01*
Y548767D02*
Y553212D01*
Y557657D02*
Y562737D01*
Y566039D02*
Y570611D01*
Y575818D02*
Y579247D01*
Y589661D02*
Y592963D01*
Y601726D02*
Y602742D01*
X296799Y535432D02*
Y544576D01*
Y548767D02*
Y553339D01*
Y557657D02*
Y562737D01*
Y566039D02*
Y570484D01*
Y575818D02*
Y579247D01*
Y589661D02*
Y592963D01*
Y601726D02*
Y602742D01*
X296926Y535432D02*
Y544576D01*
Y548767D02*
Y553339D01*
Y557657D02*
Y562737D01*
Y566039D02*
Y570484D01*
Y575818D02*
Y579247D01*
Y589661D02*
Y592963D01*
Y601726D02*
Y602742D01*
X297053Y535432D02*
Y544576D01*
Y548640D02*
Y553339D01*
Y557530D02*
Y562737D01*
Y566039D02*
Y570484D01*
Y575818D02*
Y579247D01*
Y589661D02*
Y592963D01*
Y601726D02*
Y602742D01*
X297180Y535432D02*
Y544576D01*
Y548640D02*
Y553466D01*
Y557530D02*
Y562737D01*
Y566039D02*
Y570484D01*
Y575818D02*
Y579247D01*
Y589661D02*
Y592963D01*
Y601599D02*
Y602742D01*
X297307Y535432D02*
Y544703D01*
Y548640D02*
Y553466D01*
Y557530D02*
Y562737D01*
Y566039D02*
Y570484D01*
Y575818D02*
Y579247D01*
Y589661D02*
Y592963D01*
Y601599D02*
Y602742D01*
X297434Y535432D02*
Y544703D01*
Y548513D02*
Y553466D01*
Y557530D02*
Y562737D01*
Y566039D02*
Y570484D01*
Y575818D02*
Y579247D01*
Y589661D02*
Y592963D01*
Y601599D02*
Y602615D01*
X297561Y535559D02*
Y544703D01*
Y548513D02*
Y553593D01*
Y557403D02*
Y562737D01*
Y566039D02*
Y570484D01*
Y575818D02*
Y579247D01*
Y589661D02*
Y592963D01*
Y601599D02*
Y602615D01*
X297688Y535559D02*
Y544703D01*
Y548513D02*
Y553593D01*
Y557403D02*
Y562737D01*
Y566039D02*
Y570484D01*
Y575818D02*
Y579247D01*
Y589661D02*
Y592963D01*
Y601599D02*
Y602615D01*
X297815Y535559D02*
Y544830D01*
Y548513D02*
Y553593D01*
Y557403D02*
Y562737D01*
Y566039D02*
Y570357D01*
Y575818D02*
Y579247D01*
Y589661D02*
Y592963D01*
Y601472D02*
Y602615D01*
X297942Y535559D02*
Y544830D01*
Y548386D02*
Y553593D01*
Y557403D02*
Y562737D01*
Y566039D02*
Y570357D01*
Y575818D02*
Y579247D01*
Y589661D02*
Y592963D01*
Y601472D02*
Y602615D01*
X298069Y535559D02*
Y544830D01*
Y548386D02*
Y553720D01*
Y557276D02*
Y562737D01*
Y566039D02*
Y570357D01*
Y575818D02*
Y579247D01*
Y589661D02*
Y592963D01*
Y601472D02*
Y602488D01*
X298196Y535686D02*
Y544830D01*
Y548386D02*
Y553720D01*
Y557276D02*
Y562737D01*
Y566039D02*
Y570357D01*
Y575818D02*
Y579247D01*
Y589661D02*
Y592963D01*
Y601472D02*
Y602488D01*
X298323Y535686D02*
Y544957D01*
Y548259D02*
Y553720D01*
Y557276D02*
Y562737D01*
Y566039D02*
Y570357D01*
Y575818D02*
Y579247D01*
Y589661D02*
Y592963D01*
Y601345D02*
Y602488D01*
X298450Y535686D02*
Y544957D01*
Y548259D02*
Y553847D01*
Y557149D02*
Y562737D01*
Y566039D02*
Y570230D01*
Y575818D02*
Y579247D01*
Y589661D02*
Y592963D01*
Y601345D02*
Y602488D01*
X298577Y535813D02*
Y544957D01*
Y548259D02*
Y553847D01*
Y557149D02*
Y562737D01*
Y566039D02*
Y570230D01*
Y575818D02*
Y579247D01*
Y589661D02*
Y592963D01*
Y601345D02*
Y602361D01*
X298704Y535813D02*
Y545084D01*
Y548259D02*
Y553847D01*
Y557149D02*
Y562737D01*
Y566039D02*
Y570230D01*
Y575818D02*
Y579247D01*
Y589661D02*
Y592963D01*
Y601218D02*
Y602361D01*
X298831Y535813D02*
Y545084D01*
Y548132D02*
Y553847D01*
Y557149D02*
Y562737D01*
Y566039D02*
Y570230D01*
Y575818D02*
Y579247D01*
Y589661D02*
Y592963D01*
Y601218D02*
Y602361D01*
X298958Y535813D02*
Y545084D01*
Y548132D02*
Y553974D01*
Y557022D02*
Y562864D01*
Y566039D02*
Y570103D01*
Y575818D02*
Y579247D01*
Y589661D02*
Y592963D01*
Y601218D02*
Y602234D01*
X299085Y535940D02*
Y545084D01*
Y548132D02*
Y553974D01*
Y557022D02*
Y562864D01*
Y566039D02*
Y570103D01*
Y575818D02*
Y579247D01*
Y589661D02*
Y592963D01*
Y601091D02*
Y602234D01*
X299212Y535940D02*
Y545211D01*
Y548005D02*
Y553974D01*
Y557022D02*
Y562737D01*
Y566039D02*
Y570103D01*
Y575818D02*
Y579247D01*
Y589661D02*
Y592963D01*
Y601091D02*
Y602234D01*
X299339Y536067D02*
Y545211D01*
Y548005D02*
Y554101D01*
Y557022D02*
Y562737D01*
Y566039D02*
Y570103D01*
Y575818D02*
Y579247D01*
Y589661D02*
Y592963D01*
Y601091D02*
Y602107D01*
X299466Y536067D02*
Y545211D01*
Y548005D02*
Y554101D01*
Y556895D02*
Y562737D01*
Y566039D02*
Y569976D01*
Y575818D02*
Y579247D01*
Y589661D02*
Y592963D01*
Y600964D02*
Y602107D01*
X299593Y536067D02*
Y545338D01*
Y545592D02*
Y545719D01*
Y547751D02*
Y554101D01*
Y554355D02*
Y554482D01*
Y554609D02*
Y554863D01*
Y556895D02*
Y562864D01*
Y566039D02*
Y569976D01*
Y576072D02*
Y579247D01*
Y589915D02*
Y590169D01*
Y590423D02*
Y592455D01*
Y592836D02*
Y592963D01*
Y600964D02*
Y602107D01*
X299720Y536194D02*
Y569976D01*
Y600837D02*
Y601980D01*
X299847Y536194D02*
Y569849D01*
Y600837D02*
Y601980D01*
X299974Y536321D02*
Y569849D01*
Y600710D02*
Y601853D01*
X300101Y536321D02*
Y569849D01*
Y600710D02*
Y601853D01*
X300228Y536321D02*
Y569722D01*
Y600583D02*
Y601726D01*
X300355Y536448D02*
Y569722D01*
Y600583D02*
Y601726D01*
X300482Y536448D02*
Y569595D01*
Y600456D02*
Y601599D01*
X300609Y536575D02*
Y569595D01*
Y600456D02*
Y601599D01*
X300736Y536575D02*
Y569595D01*
Y600329D02*
Y601472D01*
X300863Y536702D02*
Y569468D01*
Y600329D02*
Y601472D01*
X300990Y536829D02*
Y569468D01*
Y600202D02*
Y601345D01*
X301117Y536829D02*
Y569341D01*
Y600075D02*
Y601345D01*
X301244Y536956D02*
Y569341D01*
Y600075D02*
Y601218D01*
X301371Y536956D02*
Y569214D01*
Y599948D02*
Y601218D01*
X301498Y537083D02*
Y569214D01*
Y599821D02*
Y601091D01*
X301625Y537210D02*
Y569087D01*
Y599694D02*
Y600964D01*
X301752Y537210D02*
Y569087D01*
Y599694D02*
Y600964D01*
X301879Y537337D02*
Y568960D01*
Y599567D02*
Y600837D01*
X302006Y537464D02*
Y568960D01*
Y599440D02*
Y600710D01*
X302133Y537591D02*
Y568833D01*
Y599313D02*
Y600583D01*
X302260Y537591D02*
Y568706D01*
Y599186D02*
Y600583D01*
X302387Y537718D02*
Y568706D01*
Y599059D02*
Y600456D01*
X302514Y537845D02*
Y568579D01*
Y599059D02*
Y600329D01*
X302641Y537972D02*
Y568452D01*
Y598932D02*
Y600202D01*
X302768Y537972D02*
Y568452D01*
Y598805D02*
Y600075D01*
X302895Y538099D02*
Y568325D01*
Y598678D02*
Y600075D01*
X303022Y538226D02*
Y568198D01*
Y598424D02*
Y599948D01*
X303149Y538353D02*
Y568198D01*
Y598297D02*
Y599821D01*
X303276Y538480D02*
Y568071D01*
Y598170D02*
Y599694D01*
X303403Y538607D02*
Y567944D01*
Y598043D02*
Y599567D01*
X303530Y538734D02*
Y567817D01*
Y597916D02*
Y599440D01*
X303657Y538861D02*
Y567690D01*
Y597662D02*
Y599313D01*
X303784Y538988D02*
Y567690D01*
Y597535D02*
Y599186D01*
X303911Y539115D02*
Y567563D01*
Y597408D02*
Y599059D01*
X304038Y539369D02*
Y567436D01*
Y597154D02*
Y598805D01*
X304165Y539496D02*
Y567309D01*
Y597027D02*
Y598678D01*
X304292Y539623D02*
Y567182D01*
Y596773D02*
Y598551D01*
X304419Y539750D02*
Y567055D01*
Y596519D02*
Y598424D01*
X304546Y539877D02*
Y566928D01*
Y596265D02*
Y598170D01*
X304673Y540131D02*
Y566801D01*
Y596011D02*
Y598043D01*
X304800Y540258D02*
Y566674D01*
Y595757D02*
Y597916D01*
X304927Y540512D02*
Y566547D01*
Y595503D02*
Y597662D01*
X305054Y540639D02*
Y566420D01*
Y595122D02*
Y597535D01*
X305181Y540893D02*
Y566293D01*
Y594741D02*
Y597281D01*
X305308Y541147D02*
Y566166D01*
Y594360D02*
Y597027D01*
X305435Y541401D02*
Y565912D01*
Y593725D02*
Y596773D01*
X305562Y541655D02*
Y565785D01*
Y592836D02*
Y596519D01*
X305689Y541909D02*
Y596265D01*
X305816Y542163D02*
Y596011D01*
X305943Y542417D02*
Y595757D01*
X306070Y542798D02*
Y595376D01*
X306197Y543179D02*
Y594995D01*
X306324Y543560D02*
Y594614D01*
X306451Y544068D02*
Y594106D01*
X306578Y544703D02*
Y593598D01*
X306705Y545592D02*
Y592582D01*
D48*
X562608Y374750D02*
Y387250D01*
X492860Y345442D02*
X505360D01*
X492758Y454760D02*
Y467260D01*
D49*
X415310Y283230D02*
Y335730D01*
X428810Y349230D01*
X437810D01*
X481310Y283230D02*
Y335730D01*
X467810Y349230D02*
X481310Y335730D01*
X458810Y349230D02*
X467810D01*
X458810Y283230D02*
X481310D01*
X415310D02*
X437810D01*
X524060Y394990D02*
X576560D01*
X510560Y408490D02*
X524060Y394990D01*
X510560Y408490D02*
Y417490D01*
X524060Y460990D02*
X576560D01*
X510560Y447490D02*
X524060Y460990D01*
X510560Y438490D02*
Y447490D01*
X576560Y438490D02*
Y460990D01*
Y394990D02*
Y417490D01*
X654250Y353670D02*
X675840Y332080D01*
X716480D01*
X705050Y532740D02*
X716480D01*
X668220D02*
X679650D01*
Y520040D02*
Y532740D01*
Y520040D02*
X705050Y545440D01*
X679650D02*
X705050D01*
X679650Y520040D02*
Y545440D01*
Y520040D02*
X705050D01*
Y545440D01*
X625250Y561740D02*
X759250D01*
X625250Y268740D02*
Y561740D01*
Y268740D02*
X759250D01*
Y561740D01*
X795220Y353060D02*
X816810Y331470D01*
X857450D01*
X846020Y532130D02*
X857450D01*
X809190D02*
X820620D01*
Y519430D02*
Y532130D01*
Y519430D02*
X846020Y544830D01*
X820620D02*
X846020D01*
X820620Y519430D02*
Y544830D01*
Y519430D02*
X846020D01*
Y544830D01*
X766220Y561130D02*
X900220D01*
X766220Y268130D02*
Y561130D01*
Y268130D02*
X900220D01*
Y561130D01*
D50*
X698842Y718648D02*
X696726Y716532D01*
Y712300D01*
X698842Y710184D01*
X707306D01*
X709422Y712300D01*
Y716532D01*
X707306Y718648D01*
X703074D01*
Y714416D01*
X709422Y722880D02*
X696726D01*
Y729228D01*
X698842Y731344D01*
X703074D01*
X705190Y729228D01*
Y722880D01*
X696726Y735576D02*
Y739808D01*
Y737692D01*
X709422D01*
Y735576D01*
Y739808D01*
X696726Y752504D02*
Y748272D01*
X698842Y746156D01*
X707306D01*
X709422Y748272D01*
Y752504D01*
X707306Y754620D01*
X698842D01*
X696726Y752504D01*
X306920Y772750D02*
X304804Y770634D01*
Y766402D01*
X306920Y764286D01*
X315384D01*
X317500Y766402D01*
Y770634D01*
X315384Y772750D01*
X311152D01*
Y768518D01*
X342646Y764286D02*
X329950D01*
Y770634D01*
X332066Y772750D01*
X336298D01*
X338414Y770634D01*
Y764286D01*
Y768518D02*
X342646Y772750D01*
X355350Y763524D02*
Y771988D01*
Y767756D01*
X368046D01*
X355350Y776220D02*
X368046Y784684D01*
X355350D02*
X368046Y776220D01*
X393700Y763270D02*
X381004D01*
Y769618D01*
X383120Y771734D01*
X387352D01*
X389468Y769618D01*
Y763270D01*
Y767502D02*
X393700Y771734D01*
X381004Y775966D02*
X393700Y784430D01*
X381004D02*
X393700Y775966D01*
X607314Y684530D02*
Y688762D01*
Y686646D01*
X594618D01*
X596734Y684530D01*
X594618Y703574D02*
X596734Y699342D01*
X600966Y695110D01*
X605198D01*
X607314Y697226D01*
Y701458D01*
X605198Y703574D01*
X603082D01*
X600966Y701458D01*
Y695110D01*
X631698Y684276D02*
Y688508D01*
Y686392D01*
X619002D01*
X621118Y684276D01*
X631698Y703320D02*
Y694856D01*
X623234Y703320D01*
X621118D01*
X619002Y701204D01*
Y696972D01*
X621118Y694856D01*
X655490Y694182D02*
X657606Y696298D01*
Y700530D01*
X655490Y702646D01*
X647026D01*
X644910Y700530D01*
Y696298D01*
X647026Y694182D01*
X649142D01*
X651258Y696298D01*
Y702646D01*
X656844Y765302D02*
Y769534D01*
Y767418D01*
X644148D01*
X646264Y765302D01*
Y775882D02*
X644148Y777998D01*
Y782230D01*
X646264Y784346D01*
X654728D01*
X656844Y782230D01*
Y777998D01*
X654728Y775882D01*
X646264D01*
X631698Y765302D02*
Y769534D01*
Y767418D01*
X619002D01*
X621118Y765302D01*
Y775882D02*
X619002Y777998D01*
Y782230D01*
X621118Y784346D01*
X623234D01*
X625350Y782230D01*
Y780114D01*
Y782230D01*
X627466Y784346D01*
X629582D01*
X631698Y782230D01*
Y777998D01*
X629582Y775882D01*
X606044Y765302D02*
Y769534D01*
Y767418D01*
X593348D01*
X595464Y765302D01*
X606044Y782230D02*
X593348D01*
X599696Y775882D01*
Y784346D01*
X579628Y764794D02*
X571164D01*
X566932Y769026D01*
X571164Y773258D01*
X579628D01*
X573280D01*
Y764794D01*
X569048Y777490D02*
X566932Y779606D01*
Y783838D01*
X569048Y785954D01*
X577512D01*
X579628Y783838D01*
Y779606D01*
X577512Y777490D01*
X569048D01*
X571080Y703154D02*
X568964Y701038D01*
Y696806D01*
X571080Y694690D01*
X579544D01*
X581660Y696806D01*
Y701038D01*
X579544Y703154D01*
X575312D01*
Y698922D01*
X673696Y703154D02*
X671580Y701038D01*
Y696806D01*
X673696Y694690D01*
X682160D01*
X684276Y696806D01*
Y701038D01*
X682160Y703154D01*
X677928D01*
Y698922D01*
X672172Y775036D02*
X670056Y772920D01*
Y768688D01*
X672172Y766572D01*
X680636D01*
X682752Y768688D01*
Y772920D01*
X680636Y775036D01*
X676404D01*
Y770804D01*
D51*
X807080Y581662D02*
D03*
X667380Y584204D02*
D03*
M02*
