M48
;Layer_Color=9474304
;FILE_FORMAT=4:4
METRIC,LZ
;TYPE=PLATED
T1F00S00C0.5080
T2F00S00C0.7112
T3F00S00C0.9000
T6F00S00C1.2000
T7F00S00C1.3000
T8F00S00C1.4000
%
T01
X0040259Y00509016
X00442722
X0042545Y00532384
X0045847Y00616966
X0052324Y00574548
X0036449Y00533908
X00362966Y0050927
T02
X00425704Y00300736
Y00321056
X0049911Y0031623
X0058928Y0034544
Y0036068
X0058674Y00381
X0084201Y0063119
X0070358
X0052578Y0064135
X0050927
X0051562Y0065913
X0049911
X0051689Y0046101
X0056388Y0047117
X0058166
X0059944
X0059817Y0043307
Y0041529
X0056388Y004445
X0027686Y0067564
Y0074168
T03
X0095885Y0028829
X0098425
X0098552Y0056515
X0096012
X00676656Y0072136
Y0074676
X00651256
Y0072136
X00625856
Y0074676
X00600456
Y0072136
X00575056
Y0074676
X0042291Y00705358
Y00679958
X00387096Y00746506
X00361696
X00336296
X00310896
T06
X0088288Y0058166
X0077828
X0074318Y005842
X0063858
T07
X0065425Y0029774
Y0036774
X0073025Y0033274
X0079522Y0036713
Y0029713
X0087122Y0033213
Y0053213
X0079522
X0073025Y0053274
X0065425
T08
X0098806Y0033862
Y0038862
Y0045546
Y0050546
Y0062484
Y0067484
M30
