G04 Layer_Color=8388736*
%FSLAX44Y44*%
%MOMM*%
G71*
G01*
G75*
%ADD23C,0.1270*%
%ADD27C,0.2540*%
%ADD28C,2.0160*%
%ADD29C,0.1524*%
D23*
X255016Y831342D02*
X1044956D01*
Y202184D02*
Y831342D01*
X255016Y202184D02*
X1044956D01*
X255016D02*
Y831342D01*
X1044956D01*
Y202184D02*
Y831342D01*
X255016Y202184D02*
X1044956D01*
X255016D02*
Y831342D01*
D27*
X1054354D02*
X1059434D01*
X1054354Y202184D02*
X1059434D01*
X1056894Y831342D02*
X1061974Y816102D01*
X1051814D02*
X1056894Y831342D01*
Y202184D02*
X1061974Y217424D01*
X1051814D02*
X1056894Y202184D01*
Y595733D02*
Y831342D01*
Y202184D02*
Y437793D01*
X1044977Y843788D02*
Y848868D01*
X255037Y843788D02*
Y848868D01*
X1029737Y841248D02*
X1044977Y846328D01*
X1029737Y851408D02*
X1044977Y846328D01*
X255037D02*
X270277Y841248D01*
X255037Y846328D02*
X270277Y851408D01*
X730246Y846328D02*
X1044977D01*
X255037D02*
X569768D01*
X1054354Y831342D02*
X1059434D01*
X1054354Y202184D02*
X1059434D01*
X1056894Y831342D02*
X1061974Y816102D01*
X1051814D02*
X1056894Y831342D01*
Y202184D02*
X1061974Y217424D01*
X1051814D02*
X1056894Y202184D01*
Y595733D02*
Y831342D01*
Y202184D02*
Y437793D01*
X1044977Y843788D02*
Y848868D01*
X255037Y843788D02*
Y848868D01*
X1029737Y841248D02*
X1044977Y846328D01*
X1029737Y851408D02*
X1044977Y846328D01*
X255037D02*
X270277Y841248D01*
X255037Y846328D02*
X270277Y851408D01*
X730246Y846328D02*
X1044977D01*
X255037D02*
X569768D01*
D28*
X351266Y401824D02*
X376266D01*
X413766Y359824D02*
Y379824D01*
X353766Y339824D02*
X373766D01*
X351266Y401824D02*
X376266D01*
X413766Y359824D02*
Y379824D01*
X353766Y339824D02*
X373766D01*
D29*
X1050800Y450490D02*
X1053340Y445412D01*
X1058418Y440333D01*
X1063496D01*
X1066036Y442872D01*
Y447951D01*
X1063496Y450490D01*
X1060957D01*
X1058418Y447951D01*
Y440333D01*
X1066036Y465725D02*
Y455568D01*
X1055879Y465725D01*
X1053340D01*
X1050800Y463186D01*
Y458107D01*
X1053340Y455568D01*
X1066036Y470803D02*
X1063496D01*
Y473343D01*
X1066036D01*
Y470803D01*
X1063496Y483499D02*
X1066036Y486038D01*
Y491117D01*
X1063496Y493656D01*
X1053340D01*
X1050800Y491117D01*
Y486038D01*
X1053340Y483499D01*
X1055879D01*
X1058418Y486038D01*
Y493656D01*
X1066036Y498734D02*
Y503813D01*
Y501273D01*
X1050800D01*
X1053340Y498734D01*
X1050800Y521587D02*
X1053340Y516509D01*
X1058418Y511430D01*
X1063496D01*
X1066036Y513969D01*
Y519048D01*
X1063496Y521587D01*
X1060957D01*
X1058418Y519048D01*
Y511430D01*
X1066036Y546979D02*
X1060957Y541900D01*
X1055879D01*
X1050800Y546979D01*
X1066036Y554596D02*
X1055879D01*
Y557135D01*
X1058418Y559675D01*
X1066036D01*
X1058418D01*
X1055879Y562214D01*
X1058418Y564753D01*
X1066036D01*
Y569831D02*
X1055879D01*
Y572370D01*
X1058418Y574910D01*
X1066036D01*
X1058418D01*
X1055879Y577449D01*
X1058418Y579988D01*
X1066036D01*
Y585066D02*
X1060957Y590145D01*
X1055879D01*
X1050800Y585066D01*
X572308Y852421D02*
X582464D01*
Y849882D01*
X572308Y839726D01*
Y837187D01*
X587543Y849882D02*
X590082Y852421D01*
X595160D01*
X597699Y849882D01*
Y847343D01*
X595160Y844804D01*
X597699Y842265D01*
Y839726D01*
X595160Y837187D01*
X590082D01*
X587543Y839726D01*
Y842265D01*
X590082Y844804D01*
X587543Y847343D01*
Y849882D01*
X590082Y844804D02*
X595160D01*
X602778Y837187D02*
Y839726D01*
X605317D01*
Y837187D01*
X602778D01*
X615474Y839726D02*
X618013Y837187D01*
X623091D01*
X625630Y839726D01*
Y849882D01*
X623091Y852421D01*
X618013D01*
X615474Y849882D01*
Y847343D01*
X618013Y844804D01*
X625630D01*
X630709Y839726D02*
X633248Y837187D01*
X638326D01*
X640865Y839726D01*
Y849882D01*
X638326Y852421D01*
X633248D01*
X630709Y849882D01*
Y847343D01*
X633248Y844804D01*
X640865D01*
X653561Y837187D02*
Y852421D01*
X645944Y844804D01*
X656100D01*
X681492Y837187D02*
X676414Y842265D01*
Y847343D01*
X681492Y852421D01*
X689110Y837187D02*
Y847343D01*
X691649D01*
X694188Y844804D01*
Y837187D01*
Y844804D01*
X696727Y847343D01*
X699267Y844804D01*
Y837187D01*
X704345D02*
Y847343D01*
X706884D01*
X709423Y844804D01*
Y837187D01*
Y844804D01*
X711962Y847343D01*
X714502Y844804D01*
Y837187D01*
X719580D02*
X724658Y842265D01*
Y847343D01*
X719580Y852421D01*
X1050800Y450490D02*
X1053340Y445412D01*
X1058418Y440333D01*
X1063496D01*
X1066036Y442872D01*
Y447951D01*
X1063496Y450490D01*
X1060957D01*
X1058418Y447951D01*
Y440333D01*
X1066036Y465725D02*
Y455568D01*
X1055879Y465725D01*
X1053340D01*
X1050800Y463186D01*
Y458107D01*
X1053340Y455568D01*
X1066036Y470803D02*
X1063496D01*
Y473343D01*
X1066036D01*
Y470803D01*
X1063496Y483499D02*
X1066036Y486038D01*
Y491117D01*
X1063496Y493656D01*
X1053340D01*
X1050800Y491117D01*
Y486038D01*
X1053340Y483499D01*
X1055879D01*
X1058418Y486038D01*
Y493656D01*
X1066036Y498734D02*
Y503813D01*
Y501273D01*
X1050800D01*
X1053340Y498734D01*
X1050800Y521587D02*
X1053340Y516509D01*
X1058418Y511430D01*
X1063496D01*
X1066036Y513969D01*
Y519048D01*
X1063496Y521587D01*
X1060957D01*
X1058418Y519048D01*
Y511430D01*
X1066036Y546979D02*
X1060957Y541900D01*
X1055879D01*
X1050800Y546979D01*
X1066036Y554596D02*
X1055879D01*
Y557135D01*
X1058418Y559675D01*
X1066036D01*
X1058418D01*
X1055879Y562214D01*
X1058418Y564753D01*
X1066036D01*
Y569831D02*
X1055879D01*
Y572370D01*
X1058418Y574910D01*
X1066036D01*
X1058418D01*
X1055879Y577449D01*
X1058418Y579988D01*
X1066036D01*
Y585066D02*
X1060957Y590145D01*
X1055879D01*
X1050800Y585066D01*
X572308Y852421D02*
X582464D01*
Y849882D01*
X572308Y839726D01*
Y837187D01*
X587543Y849882D02*
X590082Y852421D01*
X595160D01*
X597699Y849882D01*
Y847343D01*
X595160Y844804D01*
X597699Y842265D01*
Y839726D01*
X595160Y837187D01*
X590082D01*
X587543Y839726D01*
Y842265D01*
X590082Y844804D01*
X587543Y847343D01*
Y849882D01*
X590082Y844804D02*
X595160D01*
X602778Y837187D02*
Y839726D01*
X605317D01*
Y837187D01*
X602778D01*
X615474Y839726D02*
X618013Y837187D01*
X623091D01*
X625630Y839726D01*
Y849882D01*
X623091Y852421D01*
X618013D01*
X615474Y849882D01*
Y847343D01*
X618013Y844804D01*
X625630D01*
X630709Y839726D02*
X633248Y837187D01*
X638326D01*
X640865Y839726D01*
Y849882D01*
X638326Y852421D01*
X633248D01*
X630709Y849882D01*
Y847343D01*
X633248Y844804D01*
X640865D01*
X653561Y837187D02*
Y852421D01*
X645944Y844804D01*
X656100D01*
X681492Y837187D02*
X676414Y842265D01*
Y847343D01*
X681492Y852421D01*
X689110Y837187D02*
Y847343D01*
X691649D01*
X694188Y844804D01*
Y837187D01*
Y844804D01*
X696727Y847343D01*
X699267Y844804D01*
Y837187D01*
X704345D02*
Y847343D01*
X706884D01*
X709423Y844804D01*
Y837187D01*
Y844804D01*
X711962Y847343D01*
X714502Y844804D01*
Y837187D01*
X719580D02*
X724658Y842265D01*
Y847343D01*
X719580Y852421D01*
M02*
